<svg width="203" height="325" viewBox="0 0 203 325" fill="none" xmlns="http://www.w3.org/2000/svg">
<path d="M200 3V322H3V3H200Z" fill="white" stroke="#3D8066" stroke-width="6"/>
<path d="M40.0958 152.545H43.9651L49.1469 165.193H49.3515L54.5333 152.545H58.4026V170H55.3685V158.009H55.2066L50.3827 169.949H48.1157L43.2918 157.983H43.1299V170H40.0958V152.545ZM61.5134 170V156.909H64.5986V170H61.5134ZM63.0646 155.051C62.5759 155.051 62.1555 154.889 61.8032 154.565C61.4509 154.236 61.2748 153.841 61.2748 153.381C61.2748 152.915 61.4509 152.52 61.8032 152.196C62.1555 151.866 62.5759 151.702 63.0646 151.702C63.5589 151.702 63.9793 151.866 64.3259 152.196C64.6782 152.52 64.8543 152.915 64.8543 153.381C64.8543 153.841 64.6782 154.236 64.3259 154.565C63.9793 154.889 63.5589 155.051 63.0646 155.051ZM74.1122 156.909V159.295H66.5866V156.909H74.1122ZM68.4445 153.773H71.5298V166.062C71.5298 166.477 71.5923 166.795 71.7173 167.017C71.848 167.233 72.0184 167.381 72.2286 167.46C72.4389 167.54 72.6718 167.58 72.9275 167.58C73.1207 167.58 73.2968 167.565 73.4559 167.537C73.6207 167.509 73.7457 167.483 73.8309 167.46L74.3508 169.872C74.186 169.929 73.9502 169.991 73.6434 170.06C73.3423 170.128 72.973 170.168 72.5355 170.179C71.7627 170.202 71.0667 170.085 70.4474 169.83C69.8281 169.568 69.3366 169.165 68.973 168.619C68.615 168.074 68.4389 167.392 68.4445 166.574V153.773ZM76.4964 170V156.909H79.5816V170H76.4964ZM78.0476 155.051C77.5589 155.051 77.1385 154.889 76.7862 154.565C76.4339 154.236 76.2578 153.841 76.2578 153.381C76.2578 152.915 76.4339 152.52 76.7862 152.196C77.1385 151.866 77.5589 151.702 78.0476 151.702C78.5419 151.702 78.9623 151.866 79.3089 152.196C79.6612 152.52 79.8373 152.915 79.8373 153.381C79.8373 153.841 79.6612 154.236 79.3089 154.565C78.9623 154.889 78.5419 155.051 78.0476 155.051ZM88.2514 175.182C87.1435 175.182 86.1917 175.031 85.3963 174.73C84.6008 174.435 83.9616 174.037 83.4787 173.537C82.9957 173.037 82.6605 172.483 82.473 171.875L85.2514 171.202C85.3764 171.457 85.5582 171.71 85.7969 171.96C86.0355 172.216 86.3565 172.426 86.7599 172.591C87.169 172.761 87.6832 172.847 88.3025 172.847C89.1775 172.847 89.902 172.634 90.4758 172.207C91.0497 171.787 91.3366 171.094 91.3366 170.128V167.648H91.1832C91.0241 167.966 90.7912 168.293 90.4844 168.628C90.1832 168.963 89.7827 169.244 89.2827 169.472C88.7883 169.699 88.1662 169.812 87.4162 169.812C86.4105 169.812 85.4986 169.577 84.6804 169.105C83.8679 168.628 83.2202 167.918 82.7372 166.974C82.2599 166.026 82.0213 164.838 82.0213 163.412C82.0213 161.974 82.2599 160.761 82.7372 159.773C83.2202 158.778 83.8707 158.026 84.6889 157.514C85.5071 156.997 86.419 156.739 87.4247 156.739C88.1917 156.739 88.8224 156.869 89.3167 157.131C89.8167 157.386 90.2145 157.696 90.5099 158.06C90.8054 158.418 91.0298 158.756 91.1832 159.074H91.3537V156.909H94.3963V170.213C94.3963 171.332 94.1293 172.259 93.5952 172.991C93.0611 173.724 92.331 174.273 91.4048 174.636C90.4787 175 89.4275 175.182 88.2514 175.182ZM88.277 167.392C88.9304 167.392 89.4872 167.233 89.9474 166.915C90.4077 166.597 90.7571 166.139 90.9957 165.543C91.2344 164.946 91.3537 164.23 91.3537 163.395C91.3537 162.571 91.2344 161.849 90.9957 161.23C90.7628 160.611 90.4162 160.131 89.956 159.79C89.5014 159.443 88.9417 159.27 88.277 159.27C87.5895 159.27 87.0156 159.449 86.5554 159.807C86.0952 160.165 85.7486 160.656 85.5156 161.281C85.2827 161.901 85.1662 162.605 85.1662 163.395C85.1662 164.196 85.2827 164.898 85.5156 165.5C85.7542 166.097 86.1037 166.562 86.5639 166.898C87.0298 167.227 87.6008 167.392 88.277 167.392ZM101.129 170.264C100.3 170.264 99.5526 170.116 98.8878 169.821C98.2287 169.52 97.706 169.077 97.3196 168.491C96.9389 167.906 96.7486 167.185 96.7486 166.327C96.7486 165.588 96.885 164.977 97.1577 164.494C97.4304 164.011 97.8026 163.625 98.2742 163.335C98.7458 163.045 99.277 162.827 99.8679 162.679C100.465 162.526 101.081 162.415 101.717 162.347C102.484 162.267 103.107 162.196 103.584 162.134C104.061 162.065 104.408 161.963 104.624 161.827C104.845 161.685 104.956 161.466 104.956 161.17V161.119C104.956 160.477 104.766 159.98 104.385 159.628C104.004 159.276 103.456 159.099 102.74 159.099C101.984 159.099 101.385 159.264 100.942 159.594C100.504 159.923 100.209 160.312 100.055 160.761L97.1747 160.352C97.402 159.557 97.777 158.892 98.2997 158.358C98.8225 157.818 99.4617 157.415 100.217 157.148C100.973 156.875 101.808 156.739 102.723 156.739C103.354 156.739 103.982 156.812 104.607 156.96C105.232 157.108 105.803 157.352 106.32 157.693C106.837 158.028 107.251 158.486 107.564 159.065C107.882 159.645 108.041 160.369 108.041 161.239V170H105.075V168.202H104.973C104.786 168.565 104.521 168.906 104.18 169.224C103.845 169.537 103.422 169.79 102.911 169.983C102.405 170.17 101.811 170.264 101.129 170.264ZM101.93 167.997C102.55 167.997 103.087 167.875 103.541 167.631C103.996 167.381 104.345 167.051 104.59 166.642C104.84 166.233 104.965 165.787 104.965 165.304V163.761C104.868 163.841 104.703 163.915 104.47 163.983C104.243 164.051 103.987 164.111 103.703 164.162C103.419 164.213 103.138 164.259 102.859 164.298C102.581 164.338 102.34 164.372 102.135 164.401C101.675 164.463 101.263 164.565 100.899 164.707C100.536 164.849 100.249 165.048 100.038 165.304C99.8281 165.554 99.723 165.878 99.723 166.276C99.723 166.844 99.9304 167.273 100.345 167.562C100.76 167.852 101.288 167.997 101.93 167.997ZM116.658 170.256C115.351 170.256 114.229 169.969 113.291 169.395C112.359 168.821 111.641 168.028 111.135 167.017C110.635 166 110.385 164.83 110.385 163.506C110.385 162.176 110.641 161.003 111.152 159.986C111.663 158.963 112.385 158.168 113.317 157.599C114.254 157.026 115.362 156.739 116.641 156.739C117.703 156.739 118.643 156.935 119.462 157.327C120.286 157.713 120.942 158.261 121.43 158.972C121.919 159.676 122.197 160.5 122.266 161.443H119.317C119.197 160.812 118.913 160.287 118.465 159.866C118.021 159.44 117.428 159.227 116.683 159.227C116.053 159.227 115.499 159.398 115.021 159.739C114.544 160.074 114.172 160.557 113.905 161.188C113.643 161.818 113.513 162.574 113.513 163.455C113.513 164.347 113.643 165.114 113.905 165.756C114.166 166.392 114.533 166.884 115.004 167.23C115.482 167.571 116.041 167.741 116.683 167.741C117.138 167.741 117.544 167.656 117.902 167.486C118.266 167.31 118.57 167.057 118.814 166.727C119.058 166.398 119.226 165.997 119.317 165.526H122.266C122.192 166.452 121.919 167.273 121.447 167.989C120.976 168.699 120.334 169.256 119.521 169.659C118.709 170.057 117.754 170.256 116.658 170.256ZM115.771 169.932H117.442L117.305 170.656C117.84 170.736 118.291 170.94 118.661 171.27C119.036 171.605 119.223 172.085 119.223 172.71C119.229 173.517 118.868 174.165 118.141 174.653C117.413 175.142 116.376 175.386 115.03 175.386L114.996 173.869C115.649 173.869 116.169 173.781 116.555 173.605C116.942 173.435 117.138 173.162 117.143 172.787C117.155 172.423 117.018 172.156 116.734 171.986C116.456 171.821 116.013 171.707 115.405 171.645L115.771 169.932ZM130.313 170.256C129.035 170.256 127.927 169.974 126.989 169.412C126.052 168.849 125.325 168.062 124.808 167.051C124.296 166.04 124.041 164.858 124.041 163.506C124.041 162.153 124.296 160.969 124.808 159.952C125.325 158.935 126.052 158.145 126.989 157.582C127.927 157.02 129.035 156.739 130.313 156.739C131.592 156.739 132.7 157.02 133.637 157.582C134.575 158.145 135.299 158.935 135.81 159.952C136.327 160.969 136.586 162.153 136.586 163.506C136.586 164.858 136.327 166.04 135.81 167.051C135.299 168.062 134.575 168.849 133.637 169.412C132.7 169.974 131.592 170.256 130.313 170.256ZM130.33 167.784C131.023 167.784 131.603 167.594 132.069 167.213C132.535 166.827 132.881 166.31 133.109 165.662C133.342 165.014 133.458 164.293 133.458 163.497C133.458 162.696 133.342 161.972 133.109 161.324C132.881 160.67 132.535 160.151 132.069 159.764C131.603 159.378 131.023 159.185 130.33 159.185C129.62 159.185 129.029 159.378 128.558 159.764C128.092 160.151 127.742 160.67 127.509 161.324C127.282 161.972 127.168 162.696 127.168 163.497C127.168 164.293 127.282 165.014 127.509 165.662C127.742 166.31 128.092 166.827 128.558 167.213C129.029 167.594 129.62 167.784 130.33 167.784ZM127.808 155.315L125.941 155.273C125.941 154.261 126.202 153.469 126.725 152.895C127.248 152.321 127.893 152.034 128.66 152.034C129.029 152.034 129.35 152.097 129.623 152.222C129.896 152.341 130.146 152.48 130.373 152.639C130.606 152.798 130.833 152.94 131.055 153.065C131.276 153.185 131.521 153.244 131.788 153.244C132.112 153.244 132.367 153.122 132.555 152.878C132.748 152.634 132.847 152.321 132.853 151.94L134.685 152.017C134.68 153.034 134.416 153.824 133.893 154.386C133.37 154.943 132.728 155.224 131.967 155.23C131.558 155.236 131.214 155.176 130.935 155.051C130.657 154.926 130.413 154.784 130.202 154.625C129.998 154.466 129.791 154.327 129.58 154.207C129.37 154.082 129.123 154.02 128.839 154.02C128.538 154.02 128.291 154.139 128.097 154.378C127.904 154.616 127.808 154.929 127.808 155.315ZM144.804 170.256C143.492 170.256 142.358 169.983 141.403 169.438C140.455 168.886 139.725 168.108 139.213 167.102C138.702 166.091 138.446 164.901 138.446 163.531C138.446 162.185 138.702 161.003 139.213 159.986C139.73 158.963 140.452 158.168 141.378 157.599C142.304 157.026 143.392 156.739 144.642 156.739C145.449 156.739 146.21 156.869 146.926 157.131C147.648 157.386 148.284 157.784 148.835 158.324C149.392 158.864 149.83 159.551 150.148 160.386C150.466 161.216 150.625 162.205 150.625 163.352V164.298H139.895V162.219H147.668C147.662 161.628 147.534 161.102 147.284 160.642C147.034 160.176 146.685 159.81 146.236 159.543C145.793 159.276 145.276 159.142 144.685 159.142C144.054 159.142 143.5 159.295 143.023 159.602C142.546 159.903 142.173 160.301 141.906 160.795C141.645 161.284 141.511 161.821 141.506 162.406V164.222C141.506 164.983 141.645 165.636 141.923 166.182C142.202 166.722 142.591 167.136 143.091 167.426C143.591 167.71 144.176 167.852 144.847 167.852C145.296 167.852 145.702 167.79 146.065 167.665C146.429 167.534 146.744 167.344 147.011 167.094C147.278 166.844 147.48 166.534 147.617 166.165L150.497 166.489C150.315 167.25 149.969 167.915 149.457 168.483C148.952 169.045 148.304 169.483 147.514 169.795C146.725 170.102 145.821 170.256 144.804 170.256ZM163.386 160.369L160.573 160.676C160.494 160.392 160.355 160.125 160.156 159.875C159.962 159.625 159.701 159.423 159.372 159.27C159.042 159.116 158.639 159.04 158.161 159.04C157.519 159.04 156.98 159.179 156.542 159.457C156.11 159.736 155.897 160.097 155.903 160.54C155.897 160.92 156.036 161.23 156.32 161.469C156.61 161.707 157.087 161.903 157.752 162.057L159.985 162.534C161.224 162.801 162.144 163.224 162.747 163.804C163.355 164.384 163.661 165.142 163.667 166.08C163.661 166.903 163.42 167.631 162.943 168.261C162.471 168.886 161.815 169.375 160.974 169.727C160.133 170.08 159.167 170.256 158.076 170.256C156.474 170.256 155.184 169.92 154.207 169.25C153.23 168.574 152.647 167.634 152.46 166.429L155.468 166.139C155.605 166.73 155.894 167.176 156.337 167.477C156.781 167.778 157.357 167.929 158.068 167.929C158.801 167.929 159.389 167.778 159.832 167.477C160.281 167.176 160.505 166.804 160.505 166.361C160.505 165.986 160.36 165.676 160.07 165.432C159.786 165.187 159.343 165 158.741 164.869L156.508 164.401C155.252 164.139 154.323 163.699 153.721 163.08C153.119 162.455 152.82 161.665 152.826 160.71C152.82 159.903 153.039 159.205 153.482 158.614C153.931 158.017 154.553 157.557 155.349 157.233C156.15 156.903 157.073 156.739 158.119 156.739C159.653 156.739 160.86 157.065 161.741 157.719C162.627 158.372 163.176 159.256 163.386 160.369Z" fill="#3D8066"/>
</svg>
