<svg width="1009" height="440" viewBox="0 0 1009 440" fill="none" xmlns="http://www.w3.org/2000/svg">
<path d="M16.0909 31H8.55682V7.72727H16.3295C18.6098 7.72727 20.5682 8.19318 22.2045 9.125C23.8409 10.0492 25.0947 11.3788 25.9659 13.1136C26.8447 14.8409 27.2841 16.9129 27.2841 19.3295C27.2841 21.7538 26.8409 23.8371 25.9545 25.5795C25.0758 27.322 23.803 28.6629 22.1364 29.6023C20.4697 30.5341 18.4545 31 16.0909 31ZM12.0682 27.9318H15.8977C17.6705 27.9318 19.1439 27.5985 20.3182 26.9318C21.4924 26.2576 22.3712 25.2841 22.9545 24.0114C23.5379 22.7311 23.8295 21.1705 23.8295 19.3295C23.8295 17.5038 23.5379 15.9545 22.9545 14.6818C22.3788 13.4091 21.5189 12.4432 20.375 11.7841C19.2311 11.125 17.8106 10.7955 16.1136 10.7955H12.0682V27.9318ZM29.8768 31V13.5455H33.2746V31H29.8768ZM31.5928 10.8523C31.0018 10.8523 30.4943 10.6553 30.07 10.2614C29.6534 9.85985 29.445 9.38257 29.445 8.82954C29.445 8.26894 29.6534 7.79167 30.07 7.39773C30.4943 6.99621 31.0018 6.79545 31.5928 6.79545C32.1837 6.79545 32.6874 6.99621 33.1041 7.39773C33.5284 7.79167 33.7405 8.26894 33.7405 8.82954C33.7405 9.38257 33.5284 9.85985 33.1041 10.2614C32.6874 10.6553 32.1837 10.8523 31.5928 10.8523ZM39.7423 20.6364V31H36.3446V13.5455H39.606V16.3864H39.8219C40.2234 15.4621 40.8522 14.7197 41.7082 14.1591C42.5719 13.5985 43.659 13.3182 44.9696 13.3182C46.159 13.3182 47.2007 13.5682 48.0946 14.0682C48.9885 14.5606 49.6817 15.2955 50.1741 16.2727C50.6666 17.25 50.9128 18.4583 50.9128 19.8977V31H47.515V20.3068C47.515 19.0417 47.1855 18.053 46.5264 17.3409C45.8673 16.6212 44.962 16.2614 43.8105 16.2614C43.0226 16.2614 42.3219 16.4318 41.7082 16.7727C41.1022 17.1136 40.6211 17.6136 40.265 18.2727C39.9166 18.9242 39.7423 19.7121 39.7423 20.6364ZM57.3663 20.6364V31H53.9686V7.72727H57.3209V16.3864H57.5368C57.9459 15.447 58.5709 14.7008 59.4118 14.1477C60.2527 13.5947 61.3512 13.3182 62.7072 13.3182C63.9042 13.3182 64.9497 13.5644 65.8436 14.0568C66.7451 14.5492 67.4421 15.2841 67.9345 16.2614C68.4345 17.2311 68.6845 18.4432 68.6845 19.8977V31H65.2868V20.3068C65.2868 19.0265 64.9572 18.0341 64.2981 17.3295C63.639 16.6174 62.7224 16.2614 61.5481 16.2614C60.7451 16.2614 60.0254 16.4318 59.389 16.7727C58.7603 17.1136 58.264 17.6136 57.9004 18.2727C57.5444 18.9242 57.3663 19.7121 57.3663 20.6364ZM79.2403 31.3523C77.5206 31.3523 76.0396 30.9848 74.7971 30.25C73.5623 29.5076 72.6077 28.4659 71.9335 27.125C71.2668 25.7765 70.9335 24.197 70.9335 22.3864C70.9335 20.5985 71.2668 19.0227 71.9335 17.6591C72.6077 16.2955 73.5471 15.2311 74.7517 14.4659C75.9638 13.7008 77.3805 13.3182 79.0017 13.3182C79.9865 13.3182 80.9411 13.4811 81.8653 13.8068C82.7896 14.1326 83.6191 14.6439 84.354 15.3409C85.0888 16.0379 85.6683 16.9432 86.0926 18.0568C86.5168 19.1629 86.729 20.5076 86.729 22.0909V23.2955H72.854V20.75H83.3994C83.3994 19.8561 83.2176 19.0644 82.854 18.375C82.4903 17.678 81.979 17.1288 81.3199 16.7273C80.6683 16.3258 79.9032 16.125 79.0244 16.125C78.0699 16.125 77.2365 16.3598 76.5244 16.8295C75.8199 17.2917 75.2744 17.8977 74.888 18.6477C74.5093 19.3902 74.3199 20.197 74.3199 21.0682V23.0568C74.3199 24.2235 74.5244 25.2159 74.9335 26.0341C75.3502 26.8523 75.9297 27.4773 76.6721 27.9091C77.4146 28.3333 78.282 28.5455 79.2744 28.5455C79.9183 28.5455 80.5055 28.4545 81.0358 28.2727C81.5661 28.0833 82.0244 27.803 82.4108 27.4318C82.7971 27.0606 83.0926 26.6023 83.2971 26.0568L86.513 26.6364C86.2555 27.5833 85.7933 28.4129 85.1267 29.125C84.4676 29.8295 83.638 30.3788 82.638 30.7727C81.6456 31.1591 80.513 31.3523 79.2403 31.3523ZM88.9978 31V13.5455H92.3956V31H88.9978ZM90.7138 10.8523C90.1228 10.8523 89.6153 10.6553 89.191 10.2614C88.7744 9.85985 88.566 9.38257 88.566 8.82954C88.566 8.26894 88.7744 7.79167 89.191 7.39773C89.6153 6.99621 90.1228 6.79545 90.7138 6.79545C91.3047 6.79545 91.8085 6.99621 92.2251 7.39773C92.6494 7.79167 92.8615 8.26894 92.8615 8.82954C92.8615 9.38257 92.6494 9.85985 92.2251 10.2614C91.8085 10.6553 91.3047 10.8523 90.7138 10.8523ZM95.4656 31V13.5455H98.7497V16.3182H98.9315C99.2497 15.3788 99.8103 14.6402 100.613 14.1023C101.424 13.5568 102.341 13.2841 103.363 13.2841C103.575 13.2841 103.825 13.2917 104.113 13.3068C104.409 13.322 104.64 13.3409 104.807 13.3636V16.6136C104.67 16.5758 104.428 16.5341 104.079 16.4886C103.731 16.4356 103.382 16.4091 103.034 16.4091C102.231 16.4091 101.515 16.5795 100.886 16.9205C100.265 17.2538 99.7724 17.7197 99.4088 18.3182C99.0451 18.9091 98.8633 19.5833 98.8633 20.3409V31H95.4656ZM112.973 31.3523C111.337 31.3523 109.909 30.9773 108.689 30.2273C107.469 29.4773 106.522 28.428 105.848 27.0795C105.174 25.7311 104.837 24.1553 104.837 22.3523C104.837 20.5417 105.174 18.9583 105.848 17.6023C106.522 16.2462 107.469 15.1932 108.689 14.4432C109.909 13.6932 111.337 13.3182 112.973 13.3182C114.609 13.3182 116.038 13.6932 117.257 14.4432C118.477 15.1932 119.424 16.2462 120.098 17.6023C120.772 18.9583 121.109 20.5417 121.109 22.3523C121.109 24.1553 120.772 25.7311 120.098 27.0795C119.424 28.428 118.477 29.4773 117.257 30.2273C116.038 30.9773 114.609 31.3523 112.973 31.3523ZM112.984 28.5C114.045 28.5 114.924 28.2197 115.621 27.6591C116.318 27.0985 116.833 26.3523 117.166 25.4205C117.507 24.4886 117.678 23.4621 117.678 22.3409C117.678 21.2273 117.507 20.2045 117.166 19.2727C116.833 18.3333 116.318 17.5795 115.621 17.0114C114.924 16.4432 114.045 16.1591 112.984 16.1591C111.916 16.1591 111.03 16.4432 110.325 17.0114C109.628 17.5795 109.109 18.3333 108.769 19.2727C108.435 20.2045 108.269 21.2273 108.269 22.3409C108.269 23.4621 108.435 24.4886 108.769 25.4205C109.109 26.3523 109.628 27.0985 110.325 27.6591C111.03 28.2197 111.916 28.5 112.984 28.5Z" fill="black"/>
<path d="M7.76136 87V72.4545H12.6761C13.8125 72.4545 14.7453 72.6487 15.4744 73.0369C16.2036 73.4205 16.7434 73.9484 17.0938 74.6207C17.4441 75.2931 17.6193 76.0578 17.6193 76.9148C17.6193 77.7718 17.4441 78.5317 17.0938 79.1946C16.7434 79.8575 16.206 80.3783 15.4815 80.7571C14.7571 81.1312 13.8314 81.3182 12.7045 81.3182H8.72727V79.7273H12.6477C13.4242 79.7273 14.0492 79.6136 14.5227 79.3864C15.0009 79.1591 15.3466 78.8371 15.5597 78.4205C15.7775 77.9991 15.8864 77.4972 15.8864 76.9148C15.8864 76.3324 15.7775 75.8234 15.5597 75.3878C15.3419 74.9522 14.9938 74.616 14.5156 74.3793C14.0374 74.1378 13.4053 74.017 12.6193 74.017H9.52273V87H7.76136ZM14.608 80.4659L18.1875 87H16.142L12.6193 80.4659H14.608ZM23.2827 87.2273C22.2316 87.2273 21.3249 86.9953 20.5626 86.5312C19.805 86.0625 19.2202 85.4091 18.8083 84.571C18.4011 83.7282 18.1975 82.7481 18.1975 81.6307C18.1975 80.5133 18.4011 79.5284 18.8083 78.6761C19.2202 77.8191 19.7932 77.1515 20.5271 76.6733C21.2657 76.1903 22.1274 75.9489 23.1123 75.9489C23.6805 75.9489 24.2415 76.0436 24.7955 76.233C25.3495 76.4223 25.8538 76.7301 26.3083 77.1562C26.7628 77.5777 27.1251 78.1364 27.395 78.8324C27.6648 79.5284 27.7998 80.3854 27.7998 81.4034V82.1136H19.3907V80.6648H26.0952C26.0952 80.0492 25.9721 79.5 25.7259 79.017C25.4844 78.5341 25.1388 78.1529 24.689 77.8736C24.2439 77.5942 23.7183 77.4545 23.1123 77.4545C22.4447 77.4545 21.867 77.6203 21.3793 77.9517C20.8964 78.2784 20.5247 78.7045 20.2643 79.2301C20.0039 79.7557 19.8736 80.3191 19.8736 80.9205V81.8864C19.8736 82.7102 20.0157 83.4086 20.2998 83.9815C20.5886 84.5497 20.9887 84.983 21.5001 85.2812C22.0114 85.5748 22.6057 85.7216 23.2827 85.7216C23.7231 85.7216 24.1208 85.66 24.4759 85.5369C24.8358 85.4091 25.1459 85.2197 25.4063 84.9688C25.6667 84.7131 25.868 84.3958 26.01 84.017L27.6293 84.4716C27.4589 85.0208 27.1724 85.5038 26.77 85.9205C26.3675 86.3324 25.8703 86.6544 25.2785 86.8864C24.6866 87.1136 24.0214 87.2273 23.2827 87.2273ZM28.8485 91.0909V76.0909H30.4678V77.8239H30.6667C30.7898 77.6345 30.9602 77.393 31.178 77.0994C31.4006 76.8011 31.7178 76.536 32.1297 76.304C32.5464 76.0672 33.1099 75.9489 33.8201 75.9489C34.7386 75.9489 35.5483 76.1785 36.2491 76.6378C36.9498 77.0971 37.4967 77.7481 37.8897 78.5909C38.2827 79.4337 38.4792 80.428 38.4792 81.5739C38.4792 82.7292 38.2827 83.7306 37.8897 84.5781C37.4967 85.4209 36.9522 86.0743 36.2562 86.5384C35.5601 86.9976 34.7576 87.2273 33.8485 87.2273C33.1477 87.2273 32.5867 87.1113 32.1653 86.8793C31.7439 86.6425 31.4195 86.375 31.1922 86.0767C30.965 85.7737 30.7898 85.5227 30.6667 85.3239H30.5246V91.0909H28.8485ZM30.4962 81.5455C30.4962 82.3693 30.617 83.0961 30.8584 83.7259C31.0999 84.3509 31.4527 84.8409 31.9167 85.196C32.3807 85.5464 32.9489 85.7216 33.6212 85.7216C34.322 85.7216 34.9067 85.5369 35.3755 85.1676C35.849 84.7936 36.2041 84.2917 36.4408 83.6619C36.6823 83.0275 36.803 82.322 36.803 81.5455C36.803 80.7784 36.6847 80.0871 36.4479 79.4716C36.2159 78.8513 35.8632 78.3613 35.3897 78.0014C34.9209 77.6368 34.3315 77.4545 33.6212 77.4545C32.9394 77.4545 32.3665 77.6274 31.9025 77.973C31.4385 78.3139 31.0881 78.7921 30.8513 79.4077C30.6146 80.0185 30.4962 80.7311 30.4962 81.5455ZM39.535 87V76.0909H41.1543V77.7386H41.268C41.4668 77.1989 41.8267 76.7609 42.3475 76.4247C42.8683 76.0885 43.4555 75.9205 44.1089 75.9205C44.232 75.9205 44.3859 75.9228 44.5705 75.9276C44.7552 75.9323 44.8948 75.9394 44.9895 75.9489V77.6534C44.9327 77.6392 44.8025 77.6179 44.5989 77.5895C44.4001 77.5563 44.1894 77.5398 43.9668 77.5398C43.4365 77.5398 42.963 77.651 42.5464 77.8736C42.1344 78.0914 41.8077 78.3944 41.5662 78.7827C41.3295 79.1662 41.2111 79.6042 41.2111 80.0966V87H39.535ZM49.7172 87.2273C48.6661 87.2273 47.7594 86.9953 46.9971 86.5312C46.2395 86.0625 45.6547 85.4091 45.2428 84.571C44.8356 83.7282 44.632 82.7481 44.632 81.6307C44.632 80.5133 44.8356 79.5284 45.2428 78.6761C45.6547 77.8191 46.2277 77.1515 46.9616 76.6733C47.7002 76.1903 48.5619 75.9489 49.5468 75.9489C50.115 75.9489 50.676 76.0436 51.23 76.233C51.784 76.4223 52.2883 76.7301 52.7428 77.1562C53.1973 77.5777 53.5596 78.1364 53.8295 78.8324C54.0993 79.5284 54.2343 80.3854 54.2343 81.4034V82.1136H45.8252V80.6648H52.5297C52.5297 80.0492 52.4066 79.5 52.1604 79.017C51.9189 78.5341 51.5733 78.1529 51.1235 77.8736C50.6784 77.5942 50.1528 77.4545 49.5468 77.4545C48.8792 77.4545 48.3015 77.6203 47.8138 77.9517C47.3309 78.2784 46.9592 78.7045 46.6988 79.2301C46.4384 79.7557 46.3081 80.3191 46.3081 80.9205V81.8864C46.3081 82.7102 46.4502 83.4086 46.7343 83.9815C47.0231 84.5497 47.4232 84.983 47.9346 85.2812C48.4459 85.5748 49.0402 85.7216 49.7172 85.7216C50.1576 85.7216 50.5553 85.66 50.9104 85.5369C51.2703 85.4091 51.5804 85.2197 51.8408 84.9688C52.1012 84.7131 52.3025 84.3958 52.4445 84.017L54.0638 84.4716C53.8934 85.0208 53.6069 85.5038 53.2045 85.9205C52.802 86.3324 52.3048 86.6544 51.713 86.8864C51.1211 87.1136 50.4559 87.2273 49.7172 87.2273ZM63.0103 78.5341L61.5046 78.9602C61.4099 78.7093 61.2702 78.4654 61.0856 78.2287C60.9056 77.9872 60.6594 77.7884 60.3469 77.6321C60.0344 77.4759 59.6343 77.3977 59.1466 77.3977C58.479 77.3977 57.9227 77.5516 57.4776 77.8594C57.0373 78.1624 56.8171 78.5483 56.8171 79.017C56.8171 79.4337 56.9686 79.7628 57.2716 80.0043C57.5747 80.2457 58.0481 80.447 58.6921 80.608L60.3114 81.0057C61.2868 81.2424 62.0136 81.6046 62.4918 82.0923C62.97 82.5753 63.2091 83.1979 63.2091 83.9602C63.2091 84.5852 63.0292 85.1439 62.6694 85.6364C62.3142 86.1288 61.8171 86.517 61.1779 86.8011C60.5387 87.0852 59.7953 87.2273 58.9478 87.2273C57.8351 87.2273 56.9142 86.9858 56.185 86.5028C55.4558 86.0199 54.9942 85.3144 54.8 84.3864L56.391 83.9886C56.5425 84.5758 56.8289 85.0161 57.2503 85.3097C57.6765 85.6032 58.2328 85.75 58.9194 85.75C59.7006 85.75 60.3209 85.5843 60.7802 85.2528C61.2442 84.9167 61.4762 84.5142 61.4762 84.0455C61.4762 83.6667 61.3436 83.3494 61.0785 83.0938C60.8133 82.8333 60.4061 82.6392 59.8569 82.5114L58.0387 82.0852C57.0396 81.8485 56.3057 81.4815 55.837 80.9844C55.373 80.4825 55.141 79.8551 55.141 79.1023C55.141 78.4867 55.3138 77.9422 55.6594 77.4688C56.0098 76.9953 56.4856 76.6236 57.087 76.3537C57.693 76.0838 58.3796 75.9489 59.1466 75.9489C60.2262 75.9489 61.0737 76.1856 61.6892 76.6591C62.3095 77.1326 62.7499 77.7576 63.0103 78.5341ZM68.8051 87.2273C67.7539 87.2273 66.8472 86.9953 66.0849 86.5312C65.3273 86.0625 64.7426 85.4091 64.3306 84.571C63.9235 83.7282 63.7199 82.7481 63.7199 81.6307C63.7199 80.5133 63.9235 79.5284 64.3306 78.6761C64.7426 77.8191 65.3155 77.1515 66.0494 76.6733C66.788 76.1903 67.6498 75.9489 68.6346 75.9489C69.2028 75.9489 69.7639 76.0436 70.3179 76.233C70.8718 76.4223 71.3761 76.7301 71.8306 77.1562C72.2852 77.5777 72.6474 78.1364 72.9173 78.8324C73.1872 79.5284 73.3221 80.3854 73.3221 81.4034V82.1136H64.913V80.6648H71.6176C71.6176 80.0492 71.4945 79.5 71.2483 79.017C71.0068 78.5341 70.6611 78.1529 70.2113 77.8736C69.7663 77.5942 69.2407 77.4545 68.6346 77.4545C67.967 77.4545 67.3894 77.6203 66.9017 77.9517C66.4187 78.2784 66.047 78.7045 65.7866 79.2301C65.5262 79.7557 65.396 80.3191 65.396 80.9205V81.8864C65.396 82.7102 65.538 83.4086 65.8221 83.9815C66.111 84.5497 66.511 84.983 67.0224 85.2812C67.5338 85.5748 68.128 85.7216 68.8051 85.7216C69.2454 85.7216 69.6431 85.66 69.9983 85.5369C70.3581 85.4091 70.6682 85.2197 70.9287 84.9688C71.1891 84.7131 71.3903 84.3958 71.5324 84.017L73.1517 84.4716C72.9812 85.0208 72.6948 85.5038 72.2923 85.9205C71.8898 86.3324 71.3927 86.6544 70.8008 86.8864C70.209 87.1136 69.5437 87.2273 68.8051 87.2273ZM76.047 80.4375V87H74.3708V76.0909H75.9902V77.7955H76.1322C76.3879 77.2415 76.7761 76.7964 77.297 76.4602C77.8178 76.1193 78.4902 75.9489 79.314 75.9489C80.0527 75.9489 80.699 76.1004 81.2529 76.4034C81.8069 76.7017 82.2378 77.1562 82.5456 77.767C82.8533 78.3731 83.0072 79.1402 83.0072 80.0682V87H81.3311V80.1818C81.3311 79.3248 81.1085 78.6572 80.6635 78.179C80.2184 77.696 79.6076 77.4545 78.8311 77.4545C78.296 77.4545 77.8178 77.5705 77.3964 77.8026C76.9797 78.0346 76.6507 78.3731 76.4092 78.8182C76.1677 79.2633 76.047 79.803 76.047 80.4375ZM89.3134 76.0909V77.5114H83.66V76.0909H89.3134ZM85.3077 73.4773H86.9838V83.875C86.9838 84.3485 87.0525 84.7036 87.1898 84.9403C87.3318 85.1723 87.5118 85.3286 87.7296 85.4091C87.9521 85.4848 88.1865 85.5227 88.4327 85.5227C88.6174 85.5227 88.7689 85.5133 88.8872 85.4943C89.0056 85.4706 89.1003 85.4517 89.1713 85.4375L89.5122 86.9432C89.3986 86.9858 89.24 87.0284 89.0364 87.071C88.8328 87.1184 88.5747 87.142 88.2622 87.142C87.7888 87.142 87.3247 87.0402 86.8702 86.8366C86.4204 86.633 86.0463 86.3229 85.748 85.9062C85.4545 85.4896 85.3077 84.964 85.3077 84.3295V73.4773ZM93.5439 87.2557C92.8526 87.2557 92.2253 87.1255 91.6618 86.8651C91.0984 86.5999 90.6509 86.2188 90.3195 85.7216C89.988 85.2197 89.8223 84.6136 89.8223 83.9034C89.8223 83.2784 89.9454 82.7718 90.1916 82.3835C90.4378 81.9905 90.7669 81.6828 91.1789 81.4602C91.5908 81.2377 92.0453 81.072 92.5425 80.9631C93.0444 80.8494 93.5486 80.7595 94.0553 80.6932C94.7182 80.608 95.2556 80.544 95.6675 80.5014C96.0842 80.4541 96.3872 80.3759 96.5766 80.267C96.7707 80.1581 96.8678 79.9687 96.8678 79.6989V79.642C96.8678 78.9413 96.676 78.3968 96.2925 78.0085C95.9137 77.6203 95.3384 77.4261 94.5666 77.4261C93.7664 77.4261 93.1391 77.6013 92.6845 77.9517C92.23 78.3021 91.9104 78.6761 91.7257 79.0739L90.1348 78.5057C90.4189 77.8428 90.7977 77.3267 91.2712 76.9574C91.7494 76.5833 92.2702 76.3229 92.8337 76.1761C93.4019 76.0246 93.9606 75.9489 94.5098 75.9489C94.8602 75.9489 95.2627 75.9915 95.7172 76.0767C96.1765 76.1572 96.6192 76.3253 97.0453 76.581C97.4762 76.8366 97.8337 77.2225 98.1178 77.7386C98.4019 78.2547 98.5439 78.946 98.5439 79.8125V87H96.8678V85.5227H96.7825C96.6689 85.7595 96.4795 86.0128 96.2144 86.2827C95.9492 86.5526 95.5965 86.7822 95.1561 86.9716C94.7158 87.161 94.1784 87.2557 93.5439 87.2557ZM93.7996 85.75C94.4625 85.75 95.0212 85.6198 95.4757 85.3594C95.935 85.099 96.2807 84.7628 96.5127 84.3509C96.7494 83.9389 96.8678 83.5057 96.8678 83.0511V81.517C96.7968 81.6023 96.6405 81.6804 96.399 81.7514C96.1623 81.8177 95.8877 81.8769 95.5752 81.929C95.2674 81.9763 94.9667 82.0189 94.6732 82.0568C94.3843 82.09 94.15 82.1184 93.97 82.142C93.5344 82.1989 93.1272 82.2912 92.7485 82.419C92.3744 82.5421 92.0714 82.7292 91.8394 82.9801C91.6121 83.2263 91.4985 83.5625 91.4985 83.9886C91.4985 84.571 91.7139 85.0114 92.1448 85.3097C92.5804 85.6032 93.132 85.75 93.7996 85.75ZM104.534 87.2273C103.511 87.2273 102.631 86.9858 101.892 86.5028C101.153 86.0199 100.585 85.3546 100.187 84.5071C99.7897 83.6596 99.5909 82.6913 99.5909 81.6023C99.5909 80.4943 99.7944 79.5166 100.202 78.669C100.614 77.8168 101.186 77.1515 101.92 76.6733C102.659 76.1903 103.521 75.9489 104.506 75.9489C105.273 75.9489 105.964 76.0909 106.579 76.375C107.195 76.6591 107.699 77.0568 108.092 77.5682C108.485 78.0795 108.729 78.6761 108.824 79.358H107.148C107.02 78.8608 106.736 78.4205 106.295 78.0369C105.86 77.6487 105.273 77.4545 104.534 77.4545C103.881 77.4545 103.308 77.625 102.815 77.9659C102.328 78.3021 101.946 78.7779 101.672 79.3935C101.402 80.0043 101.267 80.7216 101.267 81.5455C101.267 82.3883 101.4 83.1222 101.665 83.7472C101.935 84.3722 102.313 84.8575 102.801 85.2031C103.294 85.5488 103.871 85.7216 104.534 85.7216C104.97 85.7216 105.365 85.6458 105.72 85.4943C106.075 85.3428 106.376 85.125 106.622 84.8409C106.868 84.5568 107.044 84.2159 107.148 83.8182H108.824C108.729 84.4621 108.495 85.0421 108.121 85.5582C107.751 86.0696 107.261 86.4768 106.651 86.7798C106.044 87.0781 105.339 87.2273 104.534 87.2273ZM103.739 86.9432H105.131L105.017 87.5114C105.386 87.5682 105.725 87.7221 106.033 87.973C106.34 88.2287 106.494 88.6335 106.494 89.1875C106.494 89.7983 106.241 90.2955 105.734 90.679C105.232 91.0672 104.491 91.2614 103.511 91.2614L103.454 90.1534C103.895 90.1534 104.259 90.0824 104.548 89.9403C104.842 89.803 104.989 89.571 104.989 89.2443C104.989 88.9176 104.868 88.6951 104.626 88.5767C104.385 88.4583 103.994 88.3778 103.454 88.3352L103.739 86.9432ZM112.983 87.2557C112.292 87.2557 111.665 87.1255 111.101 86.8651C110.538 86.5999 110.09 86.2188 109.759 85.7216C109.427 85.2197 109.262 84.6136 109.262 83.9034C109.262 83.2784 109.385 82.7718 109.631 82.3835C109.877 81.9905 110.206 81.6828 110.618 81.4602C111.03 81.2377 111.485 81.072 111.982 80.9631C112.484 80.8494 112.988 80.7595 113.495 80.6932C114.158 80.608 114.695 80.544 115.107 80.5014C115.524 80.4541 115.827 80.3759 116.016 80.267C116.21 80.1581 116.307 79.9687 116.307 79.6989V79.642C116.307 78.9413 116.115 78.3968 115.732 78.0085C115.353 77.6203 114.778 77.4261 114.006 77.4261C113.206 77.4261 112.578 77.6013 112.124 77.9517C111.669 78.3021 111.35 78.6761 111.165 79.0739L109.574 78.5057C109.858 77.8428 110.237 77.3267 110.711 76.9574C111.189 76.5833 111.71 76.3229 112.273 76.1761C112.841 76.0246 113.4 75.9489 113.949 75.9489C114.3 75.9489 114.702 75.9915 115.157 76.0767C115.616 76.1572 116.059 76.3253 116.485 76.581C116.916 76.8366 117.273 77.2225 117.557 77.7386C117.841 78.2547 117.983 78.946 117.983 79.8125V87H116.307V85.5227H116.222C116.108 85.7595 115.919 86.0128 115.654 86.2827C115.389 86.5526 115.036 86.7822 114.596 86.9716C114.155 87.161 113.618 87.2557 112.983 87.2557ZM113.239 85.75C113.902 85.75 114.461 85.6198 114.915 85.3594C115.374 85.099 115.72 84.7628 115.952 84.3509C116.189 83.9389 116.307 83.5057 116.307 83.0511V81.517C116.236 81.6023 116.08 81.6804 115.838 81.7514C115.602 81.8177 115.327 81.8769 115.015 81.929C114.707 81.9763 114.406 82.0189 114.113 82.0568C113.824 82.09 113.589 82.1184 113.409 82.142C112.974 82.1989 112.567 82.2912 112.188 82.419C111.814 82.5421 111.511 82.7292 111.279 82.9801C111.051 83.2263 110.938 83.5625 110.938 83.9886C110.938 84.571 111.153 85.0114 111.584 85.3097C112.02 85.6032 112.571 85.75 113.239 85.75ZM111.875 74.7841L110.569 74.7273C110.569 74.0028 110.775 73.411 111.186 72.9517C111.603 72.4877 112.117 72.2557 112.728 72.2557C112.998 72.2557 113.237 72.303 113.445 72.3977C113.653 72.4877 113.852 72.5919 114.042 72.7102C114.231 72.8286 114.425 72.9351 114.624 73.0298C114.828 73.1198 115.057 73.1648 115.313 73.1648C115.583 73.1648 115.81 73.0606 115.995 72.8523C116.184 72.6392 116.279 72.3835 116.279 72.0852L117.557 72.1989C117.557 72.9375 117.349 73.5246 116.932 73.9602C116.52 74.3958 116.009 74.6136 115.398 74.6136C115.071 74.6136 114.801 74.5687 114.588 74.4787C114.375 74.384 114.186 74.2775 114.02 74.1591C113.855 74.0407 113.679 73.9366 113.495 73.8466C113.31 73.7519 113.083 73.7045 112.813 73.7045C112.543 73.7045 112.318 73.8111 112.138 74.0241C111.963 74.2325 111.875 74.4858 111.875 74.7841ZM123.973 87.2273C122.989 87.2273 122.124 86.9929 121.381 86.5241C120.642 86.0554 120.065 85.3996 119.648 84.5568C119.236 83.714 119.03 82.7292 119.03 81.6023C119.03 80.4659 119.236 79.474 119.648 78.6264C120.065 77.7789 120.642 77.1207 121.381 76.652C122.124 76.1832 122.989 75.9489 123.973 75.9489C124.958 75.9489 125.82 76.1832 126.559 76.652C127.302 77.1207 127.88 77.7789 128.292 78.6264C128.708 79.474 128.917 80.4659 128.917 81.6023C128.917 82.7292 128.708 83.714 128.292 84.5568C127.88 85.3996 127.302 86.0554 126.559 86.5241C125.82 86.9929 124.958 87.2273 123.973 87.2273ZM123.973 85.7216C124.722 85.7216 125.337 85.5298 125.82 85.1463C126.303 84.7628 126.66 84.2585 126.892 83.6335C127.124 83.0085 127.24 82.3314 127.24 81.6023C127.24 80.8731 127.124 80.1937 126.892 79.5639C126.66 78.9342 126.303 78.4252 125.82 78.0369C125.337 77.6487 124.722 77.4545 123.973 77.4545C123.225 77.4545 122.61 77.6487 122.127 78.0369C121.644 78.4252 121.286 78.9342 121.054 79.5639C120.822 80.1937 120.706 80.8731 120.706 81.6023C120.706 82.3314 120.822 83.0085 121.054 83.6335C121.286 84.2585 121.644 84.7628 122.127 85.1463C122.61 85.5298 123.225 85.7216 123.973 85.7216ZM138.218 87.2273C137.308 87.2273 136.506 86.9976 135.81 86.5384C135.114 86.0743 134.569 85.4209 134.176 84.5781C133.783 83.7306 133.587 82.7292 133.587 81.5739C133.587 80.428 133.783 79.4337 134.176 78.5909C134.569 77.7481 135.116 77.0971 135.817 76.6378C136.518 76.1785 137.327 75.9489 138.246 75.9489C138.956 75.9489 139.517 76.0672 139.929 76.304C140.346 76.536 140.663 76.8011 140.881 77.0994C141.103 77.393 141.276 77.6345 141.399 77.8239H141.541V72.4545H143.218V87H141.598V85.3239H141.399C141.276 85.5227 141.101 85.7737 140.874 86.0767C140.647 86.375 140.322 86.6425 139.901 86.8793C139.479 87.1113 138.918 87.2273 138.218 87.2273ZM138.445 85.7216C139.117 85.7216 139.685 85.5464 140.149 85.196C140.613 84.8409 140.966 84.3509 141.208 83.7259C141.449 83.0961 141.57 82.3693 141.57 81.5455C141.57 80.7311 141.451 80.0185 141.215 79.4077C140.978 78.7921 140.628 78.3139 140.164 77.973C139.7 77.6274 139.127 77.4545 138.445 77.4545C137.735 77.4545 137.143 77.6368 136.669 78.0014C136.2 78.3613 135.848 78.8513 135.611 79.4716C135.379 80.0871 135.263 80.7784 135.263 81.5455C135.263 82.322 135.381 83.0275 135.618 83.6619C135.86 84.2917 136.215 84.7936 136.683 85.1676C137.157 85.5369 137.744 85.7216 138.445 85.7216ZM148.229 87.2557C147.538 87.2557 146.911 87.1255 146.347 86.8651C145.784 86.5999 145.336 86.2188 145.005 85.7216C144.673 85.2197 144.508 84.6136 144.508 83.9034C144.508 83.2784 144.631 82.7718 144.877 82.3835C145.123 81.9905 145.452 81.6828 145.864 81.4602C146.276 81.2377 146.731 81.072 147.228 80.9631C147.73 80.8494 148.234 80.7595 148.741 80.6932C149.404 80.608 149.941 80.544 150.353 80.5014C150.77 80.4541 151.073 80.3759 151.262 80.267C151.456 80.1581 151.553 79.9687 151.553 79.6989V79.642C151.553 78.9413 151.361 78.3968 150.978 78.0085C150.599 77.6203 150.024 77.4261 149.252 77.4261C148.452 77.4261 147.824 77.6013 147.37 77.9517C146.915 78.3021 146.596 78.6761 146.411 79.0739L144.82 78.5057C145.104 77.8428 145.483 77.3267 145.957 76.9574C146.435 76.5833 146.956 76.3229 147.519 76.1761C148.087 76.0246 148.646 75.9489 149.195 75.9489C149.546 75.9489 149.948 75.9915 150.403 76.0767C150.862 76.1572 151.305 76.3253 151.731 76.581C152.162 76.8366 152.519 77.2225 152.803 77.7386C153.087 78.2547 153.229 78.946 153.229 79.8125V87H151.553V85.5227H151.468C151.354 85.7595 151.165 86.0128 150.9 86.2827C150.635 86.5526 150.282 86.7822 149.842 86.9716C149.401 87.161 148.864 87.2557 148.229 87.2557ZM148.485 85.75C149.148 85.75 149.707 85.6198 150.161 85.3594C150.62 85.099 150.966 84.7628 151.198 84.3509C151.435 83.9389 151.553 83.5057 151.553 83.0511V81.517C151.482 81.6023 151.326 81.6804 151.084 81.7514C150.848 81.8177 150.573 81.8769 150.261 81.929C149.953 81.9763 149.652 82.0189 149.359 82.0568C149.07 82.09 148.835 82.1184 148.655 82.142C148.22 82.1989 147.813 82.2912 147.434 82.419C147.06 82.5421 146.757 82.7292 146.525 82.9801C146.298 83.2263 146.184 83.5625 146.184 83.9886C146.184 84.571 146.399 85.0114 146.83 85.3097C147.266 85.6032 147.817 85.75 148.485 85.75ZM162.515 78.5341L161.009 78.9602C160.915 78.7093 160.775 78.4654 160.59 78.2287C160.41 77.9872 160.164 77.7884 159.852 77.6321C159.539 77.4759 159.139 77.3977 158.651 77.3977C157.984 77.3977 157.427 77.5516 156.982 77.8594C156.542 78.1624 156.322 78.5483 156.322 79.017C156.322 79.4337 156.473 79.7628 156.776 80.0043C157.079 80.2457 157.553 80.447 158.197 80.608L159.816 81.0057C160.791 81.2424 161.518 81.6046 161.996 82.0923C162.475 82.5753 162.714 83.1979 162.714 83.9602C162.714 84.5852 162.534 85.1439 162.174 85.6364C161.819 86.1288 161.322 86.517 160.683 86.8011C160.043 87.0852 159.3 87.2273 158.452 87.2273C157.34 87.2273 156.419 86.9858 155.69 86.5028C154.96 86.0199 154.499 85.3144 154.305 84.3864L155.896 83.9886C156.047 84.5758 156.334 85.0161 156.755 85.3097C157.181 85.6032 157.737 85.75 158.424 85.75C159.205 85.75 159.825 85.5843 160.285 85.2528C160.749 84.9167 160.981 84.5142 160.981 84.0455C160.981 83.6667 160.848 83.3494 160.583 83.0938C160.318 82.8333 159.911 82.6392 159.361 82.5114L157.543 82.0852C156.544 81.8485 155.81 81.4815 155.342 80.9844C154.878 80.4825 154.646 79.8551 154.646 79.1023C154.646 78.4867 154.818 77.9422 155.164 77.4688C155.514 76.9953 155.99 76.6236 156.592 76.3537C157.198 76.0838 157.884 75.9489 158.651 75.9489C159.731 75.9489 160.578 76.1856 161.194 76.6591C161.814 77.1326 162.254 77.7576 162.515 78.5341ZM179.427 91.0909V85.3239H179.285C179.162 85.5227 178.987 85.7737 178.759 86.0767C178.532 86.375 178.208 86.6425 177.786 86.8793C177.365 87.1113 176.804 87.2273 176.103 87.2273C175.194 87.2273 174.392 86.9976 173.695 86.5384C172.999 86.0743 172.455 85.4209 172.062 84.5781C171.669 83.7306 171.472 82.7292 171.472 81.5739C171.472 80.428 171.669 79.4337 172.062 78.5909C172.455 77.7481 173.002 77.0971 173.703 76.6378C174.403 76.1785 175.213 75.9489 176.132 75.9489C176.842 75.9489 177.403 76.0672 177.815 76.304C178.231 76.536 178.549 76.8011 178.767 77.0994C178.989 77.393 179.162 77.6345 179.285 77.8239H179.484V76.0909H181.103V91.0909H179.427ZM176.33 85.7216C177.003 85.7216 177.571 85.5464 178.035 85.196C178.499 84.8409 178.852 84.3509 179.093 83.7259C179.335 83.0961 179.455 82.3693 179.455 81.5455C179.455 80.7311 179.337 80.0185 179.1 79.4077C178.864 78.7921 178.513 78.3139 178.049 77.973C177.585 77.6274 177.012 77.4545 176.33 77.4545C175.62 77.4545 175.028 77.6368 174.555 78.0014C174.086 78.3613 173.733 78.8513 173.497 79.4716C173.265 80.0871 173.149 80.7784 173.149 81.5455C173.149 82.322 173.267 83.0275 173.504 83.6619C173.745 84.2917 174.1 84.7936 174.569 85.1676C175.043 85.5369 175.63 85.7216 176.33 85.7216ZM189.545 82.5398V76.0909H191.221V87H189.545V85.1534H189.432C189.176 85.7074 188.778 86.1785 188.239 86.5668C187.699 86.9503 187.017 87.142 186.193 87.142C185.511 87.142 184.905 86.9929 184.375 86.6946C183.845 86.3916 183.428 85.937 183.125 85.331C182.822 84.7202 182.67 83.9508 182.67 83.0227V76.0909H184.346V82.9091C184.346 83.7045 184.569 84.339 185.014 84.8125C185.464 85.286 186.037 85.5227 186.733 85.5227C187.15 85.5227 187.573 85.4162 188.004 85.2031C188.44 84.9901 188.804 84.6634 189.098 84.223C189.396 83.7827 189.545 83.2216 189.545 82.5398ZM196.001 87.2557C195.309 87.2557 194.682 87.1255 194.119 86.8651C193.555 86.5999 193.108 86.2188 192.776 85.7216C192.445 85.2197 192.279 84.6136 192.279 83.9034C192.279 83.2784 192.402 82.7718 192.648 82.3835C192.895 81.9905 193.224 81.6828 193.636 81.4602C194.048 81.2377 194.502 81.072 194.999 80.9631C195.501 80.8494 196.005 80.7595 196.512 80.6932C197.175 80.608 197.712 80.544 198.124 80.5014C198.541 80.4541 198.844 80.3759 199.033 80.267C199.227 80.1581 199.325 79.9687 199.325 79.6989V79.642C199.325 78.9413 199.133 78.3968 198.749 78.0085C198.37 77.6203 197.795 77.4261 197.023 77.4261C196.223 77.4261 195.596 77.6013 195.141 77.9517C194.687 78.3021 194.367 78.6761 194.182 79.0739L192.592 78.5057C192.876 77.8428 193.254 77.3267 193.728 76.9574C194.206 76.5833 194.727 76.3229 195.29 76.1761C195.859 76.0246 196.417 75.9489 196.967 75.9489C197.317 75.9489 197.719 75.9915 198.174 76.0767C198.633 76.1572 199.076 76.3253 199.502 76.581C199.933 76.8366 200.29 77.2225 200.575 77.7386C200.859 78.2547 201.001 78.946 201.001 79.8125V87H199.325V85.5227H199.239C199.126 85.7595 198.936 86.0128 198.671 86.2827C198.406 86.5526 198.053 86.7822 197.613 86.9716C197.173 87.161 196.635 87.2557 196.001 87.2557ZM196.256 85.75C196.919 85.75 197.478 85.6198 197.932 85.3594C198.392 85.099 198.737 84.7628 198.969 84.3509C199.206 83.9389 199.325 83.5057 199.325 83.0511V81.517C199.254 81.6023 199.097 81.6804 198.856 81.7514C198.619 81.8177 198.344 81.8769 198.032 81.929C197.724 81.9763 197.423 82.0189 197.13 82.0568C196.841 82.09 196.607 82.1184 196.427 82.142C195.991 82.1989 195.584 82.2912 195.205 82.419C194.831 82.5421 194.528 82.7292 194.296 82.9801C194.069 83.2263 193.955 83.5625 193.955 83.9886C193.955 84.571 194.171 85.0114 194.602 85.3097C195.037 85.6032 195.589 85.75 196.256 85.75ZM204.235 80.4375V87H202.559V76.0909H204.178V77.7955H204.32C204.576 77.2415 204.964 76.7964 205.485 76.4602C206.006 76.1193 206.678 75.9489 207.502 75.9489C208.241 75.9489 208.887 76.1004 209.441 76.4034C209.995 76.7017 210.426 77.1562 210.734 77.767C211.041 78.3731 211.195 79.1402 211.195 80.0682V87H209.519V80.1818C209.519 79.3248 209.297 78.6572 208.852 78.179C208.407 77.696 207.796 77.4545 207.019 77.4545C206.484 77.4545 206.006 77.5705 205.585 77.8026C205.168 78.0346 204.839 78.3731 204.597 78.8182C204.356 79.2633 204.235 79.803 204.235 80.4375ZM217.502 76.0909V77.5114H211.848V76.0909H217.502ZM213.496 73.4773H215.172V83.875C215.172 84.3485 215.241 84.7036 215.378 84.9403C215.52 85.1723 215.7 85.3286 215.918 85.4091C216.14 85.4848 216.375 85.5227 216.621 85.5227C216.805 85.5227 216.957 85.5133 217.075 85.4943C217.194 85.4706 217.288 85.4517 217.359 85.4375L217.7 86.9432C217.587 86.9858 217.428 87.0284 217.225 87.071C217.021 87.1184 216.763 87.142 216.45 87.142C215.977 87.142 215.513 87.0402 215.058 86.8366C214.609 86.633 214.234 86.3229 213.936 85.9062C213.643 85.4896 213.496 84.964 213.496 84.3295V73.4773ZM218.522 87V76.0909H220.198V87H218.522ZM219.374 74.2727C219.047 74.2727 218.766 74.1615 218.529 73.9389C218.297 73.7164 218.181 73.4489 218.181 73.1364C218.181 72.8239 218.297 72.5563 218.529 72.3338C218.766 72.1113 219.047 72 219.374 72C219.701 72 219.98 72.1113 220.212 72.3338C220.449 72.5563 220.567 72.8239 220.567 73.1364C220.567 73.4489 220.449 73.7164 220.212 73.9389C219.98 74.1615 219.701 74.2727 219.374 74.2727ZM224.977 87.2557C224.286 87.2557 223.658 87.1255 223.095 86.8651C222.532 86.5999 222.084 86.2188 221.753 85.7216C221.421 85.2197 221.256 84.6136 221.256 83.9034C221.256 83.2784 221.379 82.7718 221.625 82.3835C221.871 81.9905 222.2 81.6828 222.612 81.4602C223.024 81.2377 223.479 81.072 223.976 80.9631C224.478 80.8494 224.982 80.7595 225.489 80.6932C226.151 80.608 226.689 80.544 227.101 80.5014C227.517 80.4541 227.82 80.3759 228.01 80.267C228.204 80.1581 228.301 79.9687 228.301 79.6989V79.642C228.301 78.9413 228.109 78.3968 227.726 78.0085C227.347 77.6203 226.772 77.4261 226 77.4261C225.2 77.4261 224.572 77.6013 224.118 77.9517C223.663 78.3021 223.344 78.6761 223.159 79.0739L221.568 78.5057C221.852 77.8428 222.231 77.3267 222.704 76.9574C223.183 76.5833 223.703 76.3229 224.267 76.1761C224.835 76.0246 225.394 75.9489 225.943 75.9489C226.293 75.9489 226.696 75.9915 227.15 76.0767C227.61 76.1572 228.052 76.3253 228.479 76.581C228.909 76.8366 229.267 77.2225 229.551 77.7386C229.835 78.2547 229.977 78.946 229.977 79.8125V87H228.301V85.5227H228.216C228.102 85.7595 227.913 86.0128 227.648 86.2827C227.382 86.5526 227.03 86.7822 226.589 86.9716C226.149 87.161 225.612 87.2557 224.977 87.2557ZM225.233 85.75C225.896 85.75 226.454 85.6198 226.909 85.3594C227.368 85.099 227.714 84.7628 227.946 84.3509C228.183 83.9389 228.301 83.5057 228.301 83.0511V81.517C228.23 81.6023 228.074 81.6804 227.832 81.7514C227.596 81.8177 227.321 81.8769 227.008 81.929C226.701 81.9763 226.4 82.0189 226.106 82.0568C225.818 82.09 225.583 82.1184 225.403 82.142C224.968 82.1989 224.56 82.2912 224.182 82.419C223.808 82.5421 223.505 82.7292 223.273 82.9801C223.045 83.2263 222.932 83.5625 222.932 83.9886C222.932 84.571 223.147 85.0114 223.578 85.3097C224.014 85.6032 224.565 85.75 225.233 85.75ZM239.263 78.5341L237.757 78.9602C237.662 78.7093 237.523 78.4654 237.338 78.2287C237.158 77.9872 236.912 77.7884 236.599 77.6321C236.287 77.4759 235.887 77.3977 235.399 77.3977C234.731 77.3977 234.175 77.5516 233.73 77.8594C233.29 78.1624 233.07 78.5483 233.07 79.017C233.07 79.4337 233.221 79.7628 233.524 80.0043C233.827 80.2457 234.301 80.447 234.945 80.608L236.564 81.0057C237.539 81.2424 238.266 81.6046 238.744 82.0923C239.222 82.5753 239.462 83.1979 239.462 83.9602C239.462 84.5852 239.282 85.1439 238.922 85.6364C238.567 86.1288 238.07 86.517 237.43 86.8011C236.791 87.0852 236.048 87.2273 235.2 87.2273C234.088 87.2273 233.167 86.9858 232.437 86.5028C231.708 86.0199 231.247 85.3144 231.052 84.3864L232.643 83.9886C232.795 84.5758 233.081 85.0161 233.503 85.3097C233.929 85.6032 234.485 85.75 235.172 85.75C235.953 85.75 236.573 85.5843 237.033 85.2528C237.497 84.9167 237.729 84.5142 237.729 84.0455C237.729 83.6667 237.596 83.3494 237.331 83.0938C237.066 82.8333 236.659 82.6392 236.109 82.5114L234.291 82.0852C233.292 81.8485 232.558 81.4815 232.089 80.9844C231.625 80.4825 231.393 79.8551 231.393 79.1023C231.393 78.4867 231.566 77.9422 231.912 77.4688C232.262 76.9953 232.738 76.6236 233.339 76.3537C233.945 76.0838 234.632 75.9489 235.399 75.9489C236.479 75.9489 237.326 76.1856 237.942 76.6591C238.562 77.1326 239.002 77.7576 239.263 78.5341ZM248.727 87.2273C247.818 87.2273 247.015 86.9976 246.319 86.5384C245.623 86.0743 245.079 85.4209 244.686 84.5781C244.293 83.7306 244.096 82.7292 244.096 81.5739C244.096 80.428 244.293 79.4337 244.686 78.5909C245.079 77.7481 245.626 77.0971 246.326 76.6378C247.027 76.1785 247.837 75.9489 248.755 75.9489C249.466 75.9489 250.027 76.0672 250.439 76.304C250.855 76.536 251.173 76.8011 251.39 77.0994C251.613 77.393 251.786 77.6345 251.909 77.8239H252.051V72.4545H253.727V87H252.108V85.3239H251.909C251.786 85.5227 251.61 85.7737 251.383 86.0767C251.156 86.375 250.832 86.6425 250.41 86.8793C249.989 87.1113 249.428 87.2273 248.727 87.2273ZM248.954 85.7216C249.627 85.7216 250.195 85.5464 250.659 85.196C251.123 84.8409 251.476 84.3509 251.717 83.7259C251.959 83.0961 252.079 82.3693 252.079 81.5455C252.079 80.7311 251.961 80.0185 251.724 79.4077C251.487 78.7921 251.137 78.3139 250.673 77.973C250.209 77.6274 249.636 77.4545 248.954 77.4545C248.244 77.4545 247.652 77.6368 247.179 78.0014C246.71 78.3613 246.357 78.8513 246.12 79.4716C245.888 80.0871 245.772 80.7784 245.772 81.5455C245.772 82.322 245.891 83.0275 246.128 83.6619C246.369 84.2917 246.724 84.7936 247.193 85.1676C247.666 85.5369 248.253 85.7216 248.954 85.7216ZM260.102 87.2273C259.051 87.2273 258.145 86.9953 257.382 86.5312C256.625 86.0625 256.04 85.4091 255.628 84.571C255.221 83.7282 255.017 82.7481 255.017 81.6307C255.017 80.5133 255.221 79.5284 255.628 78.6761C256.04 77.8191 256.613 77.1515 257.347 76.6733C258.085 76.1903 258.947 75.9489 259.932 75.9489C260.5 75.9489 261.061 76.0436 261.615 76.233C262.169 76.4223 262.673 76.7301 263.128 77.1562C263.582 77.5777 263.945 78.1364 264.215 78.8324C264.484 79.5284 264.619 80.3854 264.619 81.4034V82.1136H256.21V80.6648H262.915C262.915 80.0492 262.792 79.5 262.546 79.017C262.304 78.5341 261.958 78.1529 261.509 77.8736C261.064 77.5942 260.538 77.4545 259.932 77.4545C259.264 77.4545 258.687 77.6203 258.199 77.9517C257.716 78.2784 257.344 78.7045 257.084 79.2301C256.824 79.7557 256.693 80.3191 256.693 80.9205V81.8864C256.693 82.7102 256.835 83.4086 257.119 83.9815C257.408 84.5497 257.808 84.983 258.32 85.2812C258.831 85.5748 259.425 85.7216 260.102 85.7216C260.543 85.7216 260.94 85.66 261.296 85.5369C261.655 85.4091 261.966 85.2197 262.226 84.9688C262.486 84.7131 262.688 84.3958 262.83 84.017L264.449 84.4716C264.279 85.0208 263.992 85.5038 263.59 85.9205C263.187 86.3324 262.69 86.6544 262.098 86.8864C261.506 87.1136 260.841 87.2273 260.102 87.2273ZM273.911 87.2273C273.002 87.2273 272.2 86.9976 271.504 86.5384C270.808 86.0743 270.263 85.4209 269.87 84.5781C269.477 83.7306 269.281 82.7292 269.281 81.5739C269.281 80.428 269.477 79.4337 269.87 78.5909C270.263 77.7481 270.81 77.0971 271.511 76.6378C272.212 76.1785 273.021 75.9489 273.94 75.9489C274.65 75.9489 275.211 76.0672 275.623 76.304C276.04 76.536 276.357 76.8011 276.575 77.0994C276.797 77.393 276.97 77.6345 277.093 77.8239H277.235V72.4545H278.911V87H277.292V85.3239H277.093C276.97 85.5227 276.795 85.7737 276.568 86.0767C276.34 86.375 276.016 86.6425 275.595 86.8793C275.173 87.1113 274.612 87.2273 273.911 87.2273ZM274.139 85.7216C274.811 85.7216 275.379 85.5464 275.843 85.196C276.307 84.8409 276.66 84.3509 276.902 83.7259C277.143 83.0961 277.264 82.3693 277.264 81.5455C277.264 80.7311 277.145 80.0185 276.909 79.4077C276.672 78.7921 276.322 78.3139 275.857 77.973C275.393 77.6274 274.821 77.4545 274.139 77.4545C273.429 77.4545 272.837 77.6368 272.363 78.0014C271.894 78.3613 271.542 78.8513 271.305 79.4716C271.073 80.0871 270.957 80.7784 270.957 81.5455C270.957 82.322 271.075 83.0275 271.312 83.6619C271.554 84.2917 271.909 84.7936 272.377 85.1676C272.851 85.5369 273.438 85.7216 274.139 85.7216ZM280.713 87V76.0909H282.389V87H280.713ZM281.565 74.2727C281.239 74.2727 280.957 74.1615 280.72 73.9389C280.488 73.7164 280.372 73.4489 280.372 73.1364C280.372 72.8239 280.488 72.5563 280.72 72.3338C280.957 72.1113 281.239 72 281.565 72C281.892 72 282.171 72.1113 282.403 72.3338C282.64 72.5563 282.758 72.8239 282.758 73.1364C282.758 73.4489 282.64 73.7164 282.403 73.9389C282.171 74.1615 281.892 74.2727 281.565 74.2727ZM285.634 80.4375V87H283.958V76.0909H285.577V77.7955H285.719C285.975 77.2415 286.363 76.7964 286.884 76.4602C287.405 76.1193 288.077 75.9489 288.901 75.9489C289.64 75.9489 290.286 76.1004 290.84 76.4034C291.394 76.7017 291.825 77.1562 292.133 77.767C292.441 78.3731 292.594 79.1402 292.594 80.0682V87H290.918V80.1818C290.918 79.3248 290.696 78.6572 290.251 78.179C289.806 77.696 289.195 77.4545 288.418 77.4545C287.883 77.4545 287.405 77.5705 286.984 77.8026C286.567 78.0346 286.238 78.3731 285.996 78.8182C285.755 79.2633 285.634 79.803 285.634 80.4375ZM295.832 80.4375V87H294.156V72.4545H295.832V77.7955H295.975C296.23 77.232 296.614 76.7846 297.125 76.4531C297.641 76.117 298.328 75.9489 299.185 75.9489C299.928 75.9489 300.579 76.098 301.138 76.3963C301.697 76.6899 302.13 77.142 302.438 77.7528C302.75 78.3589 302.906 79.1307 302.906 80.0682V87H301.23V80.1818C301.23 79.3153 301.005 78.6454 300.555 78.1719C300.11 77.6937 299.493 77.4545 298.702 77.4545C298.153 77.4545 297.66 77.5705 297.225 77.8026C296.794 78.0346 296.453 78.3731 296.202 78.8182C295.956 79.2633 295.832 79.803 295.832 80.4375ZM309.046 87.2273C307.994 87.2273 307.088 86.9953 306.325 86.5312C305.568 86.0625 304.983 85.4091 304.571 84.571C304.164 83.7282 303.96 82.7481 303.96 81.6307C303.96 80.5133 304.164 79.5284 304.571 78.6761C304.983 77.8191 305.556 77.1515 306.29 76.6733C307.029 76.1903 307.89 75.9489 308.875 75.9489C309.443 75.9489 310.004 76.0436 310.558 76.233C311.112 76.4223 311.617 76.7301 312.071 77.1562C312.526 77.5777 312.888 78.1364 313.158 78.8324C313.428 79.5284 313.563 80.3854 313.563 81.4034V82.1136H305.154V80.6648H311.858C311.858 80.0492 311.735 79.5 311.489 79.017C311.247 78.5341 310.902 78.1529 310.452 77.8736C310.007 77.5942 309.481 77.4545 308.875 77.4545C308.208 77.4545 307.63 77.6203 307.142 77.9517C306.659 78.2784 306.288 78.7045 306.027 79.2301C305.767 79.7557 305.637 80.3191 305.637 80.9205V81.8864C305.637 82.7102 305.779 83.4086 306.063 83.9815C306.351 84.5497 306.752 84.983 307.263 85.2812C307.774 85.5748 308.369 85.7216 309.046 85.7216C309.486 85.7216 309.884 85.66 310.239 85.5369C310.599 85.4091 310.909 85.2197 311.169 84.9688C311.43 84.7131 311.631 84.3958 311.773 84.017L313.392 84.4716C313.222 85.0208 312.935 85.5038 312.533 85.9205C312.13 86.3324 311.633 86.6544 311.041 86.8864C310.449 87.1136 309.784 87.2273 309.046 87.2273ZM314.611 87V76.0909H316.287V87H314.611ZM315.464 74.2727C315.137 74.2727 314.855 74.1615 314.618 73.9389C314.386 73.7164 314.27 73.4489 314.27 73.1364C314.27 72.8239 314.386 72.5563 314.618 72.3338C314.855 72.1113 315.137 72 315.464 72C315.79 72 316.07 72.1113 316.302 72.3338C316.538 72.5563 316.657 72.8239 316.657 73.1364C316.657 73.4489 316.538 73.7164 316.302 73.9389C316.07 74.1615 315.79 74.2727 315.464 74.2727ZM317.856 87V76.0909H319.476V77.7386H319.589C319.788 77.1989 320.148 76.7609 320.669 76.4247C321.19 76.0885 321.777 75.9205 322.43 75.9205C322.553 75.9205 322.707 75.9228 322.892 75.9276C323.077 75.9323 323.216 75.9394 323.311 75.9489V77.6534C323.254 77.6392 323.124 77.6179 322.92 77.5895C322.722 77.5563 322.511 77.5398 322.288 77.5398C321.758 77.5398 321.285 77.651 320.868 77.8736C320.456 78.0914 320.129 78.3944 319.888 78.7827C319.651 79.1662 319.533 79.6042 319.533 80.0966V87H317.856ZM327.897 87.2273C326.912 87.2273 326.048 86.9929 325.304 86.5241C324.566 86.0554 323.988 85.3996 323.571 84.5568C323.159 83.714 322.953 82.7292 322.953 81.6023C322.953 80.4659 323.159 79.474 323.571 78.6264C323.988 77.7789 324.566 77.1207 325.304 76.652C326.048 76.1832 326.912 75.9489 327.897 75.9489C328.882 75.9489 329.743 76.1832 330.482 76.652C331.225 77.1207 331.803 77.7789 332.215 78.6264C332.632 79.474 332.84 80.4659 332.84 81.6023C332.84 82.7292 332.632 83.714 332.215 84.5568C331.803 85.3996 331.225 86.0554 330.482 86.5241C329.743 86.9929 328.882 87.2273 327.897 87.2273ZM327.897 85.7216C328.645 85.7216 329.26 85.5298 329.743 85.1463C330.226 84.7628 330.584 84.2585 330.816 83.6335C331.048 83.0085 331.164 82.3314 331.164 81.6023C331.164 80.8731 331.048 80.1937 330.816 79.5639C330.584 78.9342 330.226 78.4252 329.743 78.0369C329.26 77.6487 328.645 77.4545 327.897 77.4545C327.149 77.4545 326.533 77.6487 326.05 78.0369C325.567 78.4252 325.21 78.9342 324.978 79.5639C324.746 80.1937 324.63 80.8731 324.63 81.6023C324.63 82.3314 324.746 83.0085 324.978 83.6335C325.21 84.2585 325.567 84.7628 326.05 85.1463C326.533 85.5298 327.149 85.7216 327.897 85.7216ZM339.698 80.4375V87H338.021V76.0909H339.641V77.7955H339.783C340.038 77.2415 340.427 76.7964 340.948 76.4602C341.468 76.1193 342.141 75.9489 342.965 75.9489C343.703 75.9489 344.35 76.1004 344.904 76.4034C345.458 76.7017 345.888 77.1562 346.196 77.767C346.504 78.3731 346.658 79.1402 346.658 80.0682V87H344.982V80.1818C344.982 79.3248 344.759 78.6572 344.314 78.179C343.869 77.696 343.258 77.4545 342.482 77.4545C341.947 77.4545 341.468 77.5705 341.047 77.8026C340.63 78.0346 340.301 78.3731 340.06 78.8182C339.818 79.2633 339.698 79.803 339.698 80.4375ZM352.651 87.2273C351.667 87.2273 350.802 86.9929 350.059 86.5241C349.32 86.0554 348.743 85.3996 348.326 84.5568C347.914 83.714 347.708 82.7292 347.708 81.6023C347.708 80.4659 347.914 79.474 348.326 78.6264C348.743 77.7789 349.32 77.1207 350.059 76.652C350.802 76.1832 351.667 75.9489 352.651 75.9489C353.636 75.9489 354.498 76.1832 355.237 76.652C355.98 77.1207 356.558 77.7789 356.97 78.6264C357.386 79.474 357.595 80.4659 357.595 81.6023C357.595 82.7292 357.386 83.714 356.97 84.5568C356.558 85.3996 355.98 86.0554 355.237 86.5241C354.498 86.9929 353.636 87.2273 352.651 87.2273ZM352.651 85.7216C353.4 85.7216 354.015 85.5298 354.498 85.1463C354.981 84.7628 355.338 84.2585 355.57 83.6335C355.802 83.0085 355.919 82.3314 355.919 81.6023C355.919 80.8731 355.802 80.1937 355.57 79.5639C355.338 78.9342 354.981 78.4252 354.498 78.0369C354.015 77.6487 353.4 77.4545 352.651 77.4545C351.903 77.4545 351.288 77.6487 350.805 78.0369C350.322 78.4252 349.964 78.9342 349.732 79.5639C349.5 80.1937 349.384 80.8731 349.384 81.6023C349.384 82.3314 349.5 83.0085 349.732 83.6335C349.964 84.2585 350.322 84.7628 350.805 85.1463C351.288 85.5298 351.903 85.7216 352.651 85.7216ZM362.776 76.0909H364.452V87.7955C364.452 88.4678 364.336 89.0502 364.104 89.5426C363.877 90.035 363.531 90.4162 363.067 90.6861C362.608 90.956 362.028 91.0909 361.327 91.0909C361.271 91.0909 361.214 91.0909 361.157 91.0909C361.1 91.0909 361.043 91.0909 360.986 91.0909V89.5284C361.043 89.5284 361.095 89.5284 361.143 89.5284C361.19 89.5284 361.242 89.5284 361.299 89.5284C361.81 89.5284 362.184 89.3769 362.421 89.0739C362.658 88.7756 362.776 88.3494 362.776 87.7955V76.0909ZM363.6 74.2727C363.273 74.2727 362.992 74.1615 362.755 73.9389C362.523 73.7164 362.407 73.4489 362.407 73.1364C362.407 72.8239 362.523 72.5563 362.755 72.3338C362.992 72.1113 363.273 72 363.6 72C363.927 72 364.206 72.1113 364.438 72.3338C364.675 72.5563 364.793 72.8239 364.793 73.1364C364.793 73.4489 364.675 73.7164 364.438 73.9389C364.206 74.1615 363.927 74.2727 363.6 74.2727ZM370.453 87.2273C369.468 87.2273 368.604 86.9929 367.861 86.5241C367.122 86.0554 366.545 85.3996 366.128 84.5568C365.716 83.714 365.51 82.7292 365.51 81.6023C365.51 80.4659 365.716 79.474 366.128 78.6264C366.545 77.7789 367.122 77.1207 367.861 76.652C368.604 76.1832 369.468 75.9489 370.453 75.9489C371.438 75.9489 372.3 76.1832 373.038 76.652C373.782 77.1207 374.359 77.7789 374.771 78.6264C375.188 79.474 375.396 80.4659 375.396 81.6023C375.396 82.7292 375.188 83.714 374.771 84.5568C374.359 85.3996 373.782 86.0554 373.038 86.5241C372.3 86.9929 371.438 87.2273 370.453 87.2273ZM370.453 85.7216C371.201 85.7216 371.817 85.5298 372.3 85.1463C372.783 84.7628 373.14 84.2585 373.372 83.6335C373.604 83.0085 373.72 82.3314 373.72 81.6023C373.72 80.8731 373.604 80.1937 373.372 79.5639C373.14 78.9342 372.783 78.4252 372.3 78.0369C371.817 77.6487 371.201 77.4545 370.453 77.4545C369.705 77.4545 369.09 77.6487 368.607 78.0369C368.124 78.4252 367.766 78.9342 367.534 79.5639C367.302 80.1937 367.186 80.8731 367.186 81.6023C367.186 82.3314 367.302 83.0085 367.534 83.6335C367.766 84.2585 368.124 84.7628 368.607 85.1463C369.09 85.5298 369.705 85.7216 370.453 85.7216ZM380.857 91.3182C380.048 91.3182 379.352 91.214 378.769 91.0057C378.187 90.8021 377.702 90.5322 377.313 90.196C376.93 89.8646 376.624 89.5095 376.397 89.1307L377.732 88.1932C377.884 88.392 378.076 88.6193 378.308 88.875C378.54 89.1354 378.857 89.3603 379.259 89.5497C379.667 89.7438 380.199 89.8409 380.857 89.8409C381.738 89.8409 382.465 89.6278 383.038 89.2017C383.611 88.7756 383.897 88.108 383.897 87.1989V84.983H383.755C383.632 85.1818 383.457 85.428 383.229 85.7216C383.007 86.0104 382.685 86.2685 382.264 86.4957C381.847 86.7183 381.283 86.8295 380.573 86.8295C379.693 86.8295 378.902 86.6212 378.201 86.2045C377.505 85.7879 376.953 85.1818 376.546 84.3864C376.144 83.5909 375.943 82.625 375.943 81.4886C375.943 80.3712 376.139 79.3982 376.532 78.5696C376.925 77.7363 377.472 77.0923 378.173 76.6378C378.873 76.1785 379.683 75.9489 380.602 75.9489C381.312 75.9489 381.875 76.0672 382.292 76.304C382.713 76.536 383.035 76.8011 383.258 77.0994C383.485 77.393 383.66 77.6345 383.783 77.8239H383.954V76.0909H385.573V87.3125C385.573 88.25 385.36 89.0123 384.934 89.5994C384.513 90.1913 383.944 90.6245 383.229 90.8991C382.519 91.1785 381.729 91.3182 380.857 91.3182ZM380.801 85.3239C381.473 85.3239 382.041 85.17 382.505 84.8622C382.969 84.5545 383.322 84.1117 383.563 83.5341C383.805 82.9564 383.926 82.2652 383.926 81.4602C383.926 80.6742 383.807 79.9806 383.57 79.3793C383.334 78.7779 382.983 78.3068 382.519 77.9659C382.055 77.625 381.482 77.4545 380.801 77.4545C380.09 77.4545 379.498 77.6345 379.025 77.9943C378.556 78.3542 378.203 78.8371 377.967 79.4432C377.735 80.0492 377.619 80.7216 377.619 81.4602C377.619 82.2178 377.737 82.8878 377.974 83.4702C378.215 84.0478 378.57 84.5024 379.039 84.8338C379.513 85.1605 380.1 85.3239 380.801 85.3239ZM391.572 87.2273C390.587 87.2273 389.723 86.9929 388.98 86.5241C388.241 86.0554 387.664 85.3996 387.247 84.5568C386.835 83.714 386.629 82.7292 386.629 81.6023C386.629 80.4659 386.835 79.474 387.247 78.6264C387.664 77.7789 388.241 77.1207 388.98 76.652C389.723 76.1832 390.587 75.9489 391.572 75.9489C392.557 75.9489 393.419 76.1832 394.157 76.652C394.901 77.1207 395.479 77.7789 395.89 78.6264C396.307 79.474 396.515 80.4659 396.515 81.6023C396.515 82.7292 396.307 83.714 395.89 84.5568C395.479 85.3996 394.901 86.0554 394.157 86.5241C393.419 86.9929 392.557 87.2273 391.572 87.2273ZM391.572 85.7216C392.32 85.7216 392.936 85.5298 393.419 85.1463C393.902 84.7628 394.259 84.2585 394.491 83.6335C394.723 83.0085 394.839 82.3314 394.839 81.6023C394.839 80.8731 394.723 80.1937 394.491 79.5639C394.259 78.9342 393.902 78.4252 393.419 78.0369C392.936 77.6487 392.32 77.4545 391.572 77.4545C390.824 77.4545 390.209 77.6487 389.726 78.0369C389.243 78.4252 388.885 78.9342 388.653 79.5639C388.421 80.1937 388.305 80.8731 388.305 81.6023C388.305 82.3314 388.421 83.0085 388.653 83.6335C388.885 84.2585 389.243 84.7628 389.726 85.1463C390.209 85.5298 390.824 85.7216 391.572 85.7216Z" fill="black"/>
<rect y="150" width="420" height="160" fill="#9EF9D4"/>
<g clip-path="url(#clip0_28_633)">
<path d="M358.481 227.067C352.031 225.493 349.956 223.867 349.956 221.333C349.956 218.427 352.826 216.4 357.628 216.4C362.686 216.4 364.562 218.667 364.732 222H371.012C370.813 217.413 367.83 213.2 361.891 211.84V206H353.366V211.76C347.854 212.88 343.421 216.24 343.421 221.387C343.421 227.547 348.848 230.613 356.776 232.4C363.88 234 365.301 236.347 365.301 238.827C365.301 240.667 363.908 243.6 357.628 243.6C351.775 243.6 349.473 241.147 349.161 238H342.909C343.25 243.84 347.91 247.12 353.366 248.213V254H361.891V248.267C367.432 247.28 371.836 244.267 371.836 238.8C371.836 231.227 364.931 228.64 358.481 227.067Z" fill="#295A47"/>
</g>
<g clip-path="url(#clip1_28_633)">
<path d="M62.4809 227.067C56.0306 225.493 53.9563 223.867 53.9563 221.333C53.9563 218.427 56.8262 216.4 61.6284 216.4C66.6864 216.4 68.5618 218.667 68.7323 222H75.012C74.8131 217.413 71.8295 213.2 65.8907 211.84V206H57.3661V211.76C51.8536 212.88 47.4208 216.24 47.4208 221.387C47.4208 227.547 52.8481 230.613 60.776 232.4C67.8798 234 69.3006 236.347 69.3006 238.827C69.3006 240.667 67.9082 243.6 61.6284 243.6C55.7749 243.6 53.4732 241.147 53.1607 238H46.9093C47.2503 243.84 51.9104 247.12 57.3661 248.213V254H65.8907V248.267C71.4317 247.28 75.8361 244.267 75.8361 238.8C75.8361 231.227 68.9312 228.64 62.4809 227.067Z" fill="#295A47"/>
</g>
<rect x="13" y="163" width="394" height="134" stroke="#295A47" stroke-width="6"/>
<circle cx="218" cy="230" r="45" stroke="#295A47" stroke-width="6"/>
<path d="M211.011 218.727V242H206.091V223.398H205.955L200.625 226.739V222.375L206.386 218.727H211.011ZM224.167 242.511C222.212 242.504 220.53 242.023 219.121 241.068C217.72 240.114 216.64 238.731 215.883 236.92C215.133 235.11 214.761 232.932 214.769 230.386C214.769 227.848 215.144 225.686 215.894 223.898C216.651 222.11 217.731 220.75 219.133 219.818C220.542 218.879 222.22 218.409 224.167 218.409C226.114 218.409 227.788 218.879 229.189 219.818C230.598 220.758 231.682 222.121 232.439 223.909C233.197 225.689 233.572 227.848 233.564 230.386C233.564 232.939 233.186 235.121 232.428 236.932C231.678 238.742 230.602 240.125 229.201 241.08C227.799 242.034 226.121 242.511 224.167 242.511ZM224.167 238.432C225.5 238.432 226.564 237.761 227.36 236.42C228.155 235.08 228.549 233.068 228.542 230.386C228.542 228.621 228.36 227.152 227.996 225.977C227.64 224.803 227.133 223.92 226.473 223.33C225.822 222.739 225.053 222.443 224.167 222.443C222.841 222.443 221.78 223.106 220.985 224.432C220.189 225.758 219.788 227.742 219.78 230.386C219.78 232.174 219.958 233.667 220.314 234.864C220.678 236.053 221.189 236.947 221.848 237.545C222.508 238.136 223.28 238.432 224.167 238.432Z" fill="#295A47"/>
<rect x="16" y="166" width="420" height="160" fill="#9EF9D4"/>
<g clip-path="url(#clip2_28_633)">
<path d="M374.481 243.067C368.031 241.493 365.956 239.867 365.956 237.333C365.956 234.427 368.826 232.4 373.628 232.4C378.686 232.4 380.562 234.667 380.732 238H387.012C386.813 233.413 383.83 229.2 377.891 227.84V222H369.366V227.76C363.854 228.88 359.421 232.24 359.421 237.387C359.421 243.547 364.848 246.613 372.776 248.4C379.88 250 381.301 252.347 381.301 254.827C381.301 256.667 379.908 259.6 373.628 259.6C367.775 259.6 365.473 257.147 365.161 254H358.909C359.25 259.84 363.91 263.12 369.366 264.213V270H377.891V264.267C383.432 263.28 387.836 260.267 387.836 254.8C387.836 247.227 380.931 244.64 374.481 243.067Z" fill="#295A47"/>
</g>
<g clip-path="url(#clip3_28_633)">
<path d="M78.4809 243.067C72.0306 241.493 69.9563 239.867 69.9563 237.333C69.9563 234.427 72.8262 232.4 77.6284 232.4C82.6864 232.4 84.5618 234.667 84.7323 238H91.012C90.8131 233.413 87.8295 229.2 81.8907 227.84V222H73.3661V227.76C67.8536 228.88 63.4208 232.24 63.4208 237.387C63.4208 243.547 68.8481 246.613 76.776 248.4C83.8798 250 85.3006 252.347 85.3006 254.827C85.3006 256.667 83.9082 259.6 77.6284 259.6C71.7749 259.6 69.4732 257.147 69.1607 254H62.9093C63.2503 259.84 67.9104 263.12 73.3661 264.213V270H81.8907V264.267C87.4317 263.28 91.8361 260.267 91.8361 254.8C91.8361 247.227 84.9312 244.64 78.4809 243.067Z" fill="#295A47"/>
</g>
<rect x="29" y="179" width="394" height="134" stroke="#295A47" stroke-width="6"/>
<circle cx="234" cy="246" r="45" stroke="#295A47" stroke-width="6"/>
<path d="M227.011 234.727V258H222.091V239.398H221.955L216.625 242.739V238.375L222.386 234.727H227.011ZM240.167 258.511C238.212 258.504 236.53 258.023 235.121 257.068C233.72 256.114 232.64 254.731 231.883 252.92C231.133 251.11 230.761 248.932 230.769 246.386C230.769 243.848 231.144 241.686 231.894 239.898C232.651 238.11 233.731 236.75 235.133 235.818C236.542 234.879 238.22 234.409 240.167 234.409C242.114 234.409 243.788 234.879 245.189 235.818C246.598 236.758 247.682 238.121 248.439 239.909C249.197 241.689 249.572 243.848 249.564 246.386C249.564 248.939 249.186 251.121 248.428 252.932C247.678 254.742 246.602 256.125 245.201 257.08C243.799 258.034 242.121 258.511 240.167 258.511ZM240.167 254.432C241.5 254.432 242.564 253.761 243.36 252.42C244.155 251.08 244.549 249.068 244.542 246.386C244.542 244.621 244.36 243.152 243.996 241.977C243.64 240.803 243.133 239.92 242.473 239.33C241.822 238.739 241.053 238.443 240.167 238.443C238.841 238.443 237.78 239.106 236.985 240.432C236.189 241.758 235.788 243.742 235.78 246.386C235.78 248.174 235.958 249.667 236.314 250.864C236.678 252.053 237.189 252.947 237.848 253.545C238.508 254.136 239.28 254.432 240.167 254.432Z" fill="#295A47"/>
<rect x="32" y="182" width="420" height="160" fill="#9EF9D4"/>
<g clip-path="url(#clip4_28_633)">
<path d="M390.481 259.067C384.031 257.493 381.956 255.867 381.956 253.333C381.956 250.427 384.826 248.4 389.628 248.4C394.686 248.4 396.562 250.667 396.732 254H403.012C402.813 249.413 399.83 245.2 393.891 243.84V238H385.366V243.76C379.854 244.88 375.421 248.24 375.421 253.387C375.421 259.547 380.848 262.613 388.776 264.4C395.88 266 397.301 268.347 397.301 270.827C397.301 272.667 395.908 275.6 389.628 275.6C383.775 275.6 381.473 273.147 381.161 270H374.909C375.25 275.84 379.91 279.12 385.366 280.213V286H393.891V280.267C399.432 279.28 403.836 276.267 403.836 270.8C403.836 263.227 396.931 260.64 390.481 259.067Z" fill="#295A47"/>
</g>
<g clip-path="url(#clip5_28_633)">
<path d="M94.4809 259.067C88.0306 257.493 85.9563 255.867 85.9563 253.333C85.9563 250.427 88.8262 248.4 93.6284 248.4C98.6864 248.4 100.562 250.667 100.732 254H107.012C106.813 249.413 103.83 245.2 97.8907 243.84V238H89.3661V243.76C83.8536 244.88 79.4208 248.24 79.4208 253.387C79.4208 259.547 84.8481 262.613 92.776 264.4C99.8798 266 101.301 268.347 101.301 270.827C101.301 272.667 99.9082 275.6 93.6284 275.6C87.7749 275.6 85.4732 273.147 85.1607 270H78.9093C79.2503 275.84 83.9104 279.12 89.3661 280.213V286H97.8907V280.267C103.432 279.28 107.836 276.267 107.836 270.8C107.836 263.227 100.931 260.64 94.4809 259.067Z" fill="#295A47"/>
</g>
<rect x="45" y="195" width="394" height="134" stroke="#295A47" stroke-width="6"/>
<circle cx="250" cy="262" r="45" stroke="#295A47" stroke-width="6"/>
<path d="M243.011 250.727V274H238.091V255.398H237.955L232.625 258.739V254.375L238.386 250.727H243.011ZM256.167 274.511C254.212 274.504 252.53 274.023 251.121 273.068C249.72 272.114 248.64 270.731 247.883 268.92C247.133 267.11 246.761 264.932 246.769 262.386C246.769 259.848 247.144 257.686 247.894 255.898C248.651 254.11 249.731 252.75 251.133 251.818C252.542 250.879 254.22 250.409 256.167 250.409C258.114 250.409 259.788 250.879 261.189 251.818C262.598 252.758 263.682 254.121 264.439 255.909C265.197 257.689 265.572 259.848 265.564 262.386C265.564 264.939 265.186 267.121 264.428 268.932C263.678 270.742 262.602 272.125 261.201 273.08C259.799 274.034 258.121 274.511 256.167 274.511ZM256.167 270.432C257.5 270.432 258.564 269.761 259.36 268.42C260.155 267.08 260.549 265.068 260.542 262.386C260.542 260.621 260.36 259.152 259.996 257.977C259.64 256.803 259.133 255.92 258.473 255.33C257.822 254.739 257.053 254.443 256.167 254.443C254.841 254.443 253.78 255.106 252.985 256.432C252.189 257.758 251.788 259.742 251.78 262.386C251.78 264.174 251.958 265.667 252.314 266.864C252.678 268.053 253.189 268.947 253.848 269.545C254.508 270.136 255.28 270.432 256.167 270.432Z" fill="#295A47"/>
<rect x="557" y="162" width="420" height="160" fill="#FFB3A1"/>
<g clip-path="url(#clip6_28_633)">
<path d="M915.481 239.067C909.031 237.493 906.956 235.867 906.956 233.333C906.956 230.427 909.826 228.4 914.629 228.4C919.686 228.4 921.562 230.667 921.732 234H928.012C927.813 229.413 924.83 225.2 918.891 223.84V218H910.366V223.76C904.854 224.88 900.421 228.24 900.421 233.387C900.421 239.547 905.848 242.613 913.776 244.4C920.88 246 922.301 248.347 922.301 250.827C922.301 252.667 920.908 255.6 914.629 255.6C908.775 255.6 906.473 253.147 906.161 250H899.909C900.25 255.84 904.911 259.12 910.366 260.213V266H918.891V260.267C924.432 259.28 928.836 256.267 928.836 250.8C928.836 243.227 921.931 240.64 915.481 239.067Z" fill="#602300"/>
</g>
<g clip-path="url(#clip7_28_633)">
<path d="M619.481 239.067C613.031 237.493 610.956 235.867 610.956 233.333C610.956 230.427 613.826 228.4 618.629 228.4C623.686 228.4 625.562 230.667 625.732 234H632.012C631.813 229.413 628.83 225.2 622.891 223.84V218H614.366V223.76C608.854 224.88 604.421 228.24 604.421 233.387C604.421 239.547 609.848 242.613 617.776 244.4C624.88 246 626.301 248.347 626.301 250.827C626.301 252.667 624.908 255.6 618.629 255.6C612.775 255.6 610.473 253.147 610.161 250H603.909C604.25 255.84 608.911 259.12 614.366 260.213V266H622.891V260.267C628.432 259.28 632.836 256.267 632.836 250.8C632.836 243.227 625.931 240.64 619.481 239.067Z" fill="#602300"/>
</g>
<rect x="570" y="175" width="394" height="134" stroke="#602300" stroke-width="6"/>
<circle cx="775" cy="242" r="45" stroke="#602300" stroke-width="6"/>
<path d="M774.386 254.318C772.78 254.318 771.348 254.023 770.091 253.432C768.841 252.841 767.848 252.027 767.114 250.989C766.379 249.951 765.996 248.761 765.966 247.42H770.739C770.792 248.322 771.17 249.053 771.875 249.614C772.58 250.174 773.417 250.455 774.386 250.455C775.159 250.455 775.841 250.284 776.432 249.943C777.03 249.595 777.496 249.114 777.83 248.5C778.17 247.879 778.341 247.167 778.341 246.364C778.341 245.545 778.167 244.826 777.818 244.205C777.477 243.583 777.004 243.098 776.398 242.75C775.792 242.402 775.098 242.223 774.318 242.216C773.636 242.216 772.973 242.356 772.33 242.636C771.693 242.917 771.197 243.299 770.841 243.784L766.466 243L767.568 230.727H781.795V234.75H771.625L771.023 240.58H771.159C771.568 240.004 772.186 239.527 773.011 239.148C773.837 238.769 774.761 238.58 775.784 238.58C777.186 238.58 778.436 238.909 779.534 239.568C780.633 240.227 781.5 241.133 782.136 242.284C782.773 243.428 783.087 244.746 783.08 246.239C783.087 247.807 782.723 249.201 781.989 250.42C781.261 251.633 780.242 252.587 778.932 253.284C777.629 253.973 776.114 254.318 774.386 254.318Z" fill="#602300"/>
<rect x="573" y="178" width="420" height="160" fill="#FFB3A1"/>
<g clip-path="url(#clip8_28_633)">
<path d="M931.481 255.067C925.031 253.493 922.956 251.867 922.956 249.333C922.956 246.427 925.826 244.4 930.629 244.4C935.686 244.4 937.562 246.667 937.732 250H944.012C943.813 245.413 940.83 241.2 934.891 239.84V234H926.366V239.76C920.854 240.88 916.421 244.24 916.421 249.387C916.421 255.547 921.848 258.613 929.776 260.4C936.88 262 938.301 264.347 938.301 266.827C938.301 268.667 936.908 271.6 930.629 271.6C924.775 271.6 922.473 269.147 922.161 266H915.909C916.25 271.84 920.911 275.12 926.366 276.213V282H934.891V276.267C940.432 275.28 944.836 272.267 944.836 266.8C944.836 259.227 937.931 256.64 931.481 255.067Z" fill="#602300"/>
</g>
<g clip-path="url(#clip9_28_633)">
<path d="M635.481 255.067C629.031 253.493 626.956 251.867 626.956 249.333C626.956 246.427 629.826 244.4 634.629 244.4C639.686 244.4 641.562 246.667 641.732 250H648.012C647.813 245.413 644.83 241.2 638.891 239.84V234H630.366V239.76C624.854 240.88 620.421 244.24 620.421 249.387C620.421 255.547 625.848 258.613 633.776 260.4C640.88 262 642.301 264.347 642.301 266.827C642.301 268.667 640.908 271.6 634.629 271.6C628.775 271.6 626.473 269.147 626.161 266H619.909C620.25 271.84 624.911 275.12 630.366 276.213V282H638.891V276.267C644.432 275.28 648.836 272.267 648.836 266.8C648.836 259.227 641.931 256.64 635.481 255.067Z" fill="#602300"/>
</g>
<rect x="586" y="191" width="394" height="134" stroke="#602300" stroke-width="6"/>
<circle cx="791" cy="258" r="45" stroke="#602300" stroke-width="6"/>
<path d="M790.386 270.318C788.78 270.318 787.348 270.023 786.091 269.432C784.841 268.841 783.848 268.027 783.114 266.989C782.379 265.951 781.996 264.761 781.966 263.42H786.739C786.792 264.322 787.17 265.053 787.875 265.614C788.58 266.174 789.417 266.455 790.386 266.455C791.159 266.455 791.841 266.284 792.432 265.943C793.03 265.595 793.496 265.114 793.83 264.5C794.17 263.879 794.341 263.167 794.341 262.364C794.341 261.545 794.167 260.826 793.818 260.205C793.477 259.583 793.004 259.098 792.398 258.75C791.792 258.402 791.098 258.223 790.318 258.216C789.636 258.216 788.973 258.356 788.33 258.636C787.693 258.917 787.197 259.299 786.841 259.784L782.466 259L783.568 246.727H797.795V250.75H787.625L787.023 256.58H787.159C787.568 256.004 788.186 255.527 789.011 255.148C789.837 254.769 790.761 254.58 791.784 254.58C793.186 254.58 794.436 254.909 795.534 255.568C796.633 256.227 797.5 257.133 798.136 258.284C798.773 259.428 799.087 260.746 799.08 262.239C799.087 263.807 798.723 265.201 797.989 266.42C797.261 267.633 796.242 268.587 794.932 269.284C793.629 269.973 792.114 270.318 790.386 270.318Z" fill="#602300"/>
<rect x="589" y="194" width="420" height="160" fill="#FFB3A1"/>
<g clip-path="url(#clip10_28_633)">
<path d="M947.481 271.067C941.031 269.493 938.956 267.867 938.956 265.333C938.956 262.427 941.826 260.4 946.629 260.4C951.686 260.4 953.562 262.667 953.732 266H960.012C959.813 261.413 956.83 257.2 950.891 255.84V250H942.366V255.76C936.854 256.88 932.421 260.24 932.421 265.387C932.421 271.547 937.848 274.613 945.776 276.4C952.88 278 954.301 280.347 954.301 282.827C954.301 284.667 952.908 287.6 946.629 287.6C940.775 287.6 938.473 285.147 938.161 282H931.909C932.25 287.84 936.911 291.12 942.366 292.213V298H950.891V292.267C956.432 291.28 960.836 288.267 960.836 282.8C960.836 275.227 953.931 272.64 947.481 271.067Z" fill="#602300"/>
</g>
<g clip-path="url(#clip11_28_633)">
<path d="M651.481 271.067C645.031 269.493 642.956 267.867 642.956 265.333C642.956 262.427 645.826 260.4 650.629 260.4C655.686 260.4 657.562 262.667 657.732 266H664.012C663.813 261.413 660.83 257.2 654.891 255.84V250H646.366V255.76C640.854 256.88 636.421 260.24 636.421 265.387C636.421 271.547 641.848 274.613 649.776 276.4C656.88 278 658.301 280.347 658.301 282.827C658.301 284.667 656.908 287.6 650.629 287.6C644.775 287.6 642.473 285.147 642.161 282H635.909C636.25 287.84 640.911 291.12 646.366 292.213V298H654.891V292.267C660.432 291.28 664.836 288.267 664.836 282.8C664.836 275.227 657.931 272.64 651.481 271.067Z" fill="#602300"/>
</g>
<rect x="602" y="207" width="394" height="134" stroke="#602300" stroke-width="6"/>
<circle cx="807" cy="274" r="45" stroke="#602300" stroke-width="6"/>
<path d="M806.386 287.318C804.78 287.318 803.348 287.023 802.091 286.432C800.841 285.841 799.848 285.027 799.114 283.989C798.379 282.951 797.996 281.761 797.966 280.42H802.739C802.792 281.322 803.17 282.053 803.875 282.614C804.58 283.174 805.417 283.455 806.386 283.455C807.159 283.455 807.841 283.284 808.432 282.943C809.03 282.595 809.496 282.114 809.83 281.5C810.17 280.879 810.341 280.167 810.341 279.364C810.341 278.545 810.167 277.826 809.818 277.205C809.477 276.583 809.004 276.098 808.398 275.75C807.792 275.402 807.098 275.223 806.318 275.216C805.636 275.216 804.973 275.356 804.33 275.636C803.693 275.917 803.197 276.299 802.841 276.784L798.466 276L799.568 263.727H813.795V267.75H803.625L803.023 273.58H803.159C803.568 273.004 804.186 272.527 805.011 272.148C805.837 271.769 806.761 271.58 807.784 271.58C809.186 271.58 810.436 271.909 811.534 272.568C812.633 273.227 813.5 274.133 814.136 275.284C814.773 276.428 815.087 277.746 815.08 279.239C815.087 280.807 814.723 282.201 813.989 283.42C813.261 284.633 812.242 285.587 810.932 286.284C809.629 286.973 808.114 287.318 806.386 287.318Z" fill="#602300"/>
<path d="M237.023 378.455V425H227.182V387.795H226.909L216.25 394.477V385.75L227.773 378.455H237.023ZM264.834 426.023C260.925 426.008 257.562 425.045 254.743 423.136C251.94 421.227 249.781 418.462 248.266 414.841C246.766 411.22 246.024 406.864 246.039 401.773C246.039 396.697 246.789 392.371 248.289 388.795C249.804 385.22 251.963 382.5 254.766 380.636C257.584 378.758 260.94 377.818 264.834 377.818C268.728 377.818 272.077 378.758 274.88 380.636C277.698 382.515 279.865 385.242 281.38 388.818C282.895 392.379 283.645 396.697 283.63 401.773C283.63 406.879 282.872 411.242 281.357 414.864C279.857 418.485 277.705 421.25 274.902 423.159C272.099 425.068 268.743 426.023 264.834 426.023ZM264.834 417.864C267.501 417.864 269.63 416.523 271.221 413.841C272.812 411.159 273.599 407.136 273.584 401.773C273.584 398.242 273.221 395.303 272.493 392.955C271.781 390.606 270.766 388.841 269.448 387.659C268.145 386.477 266.607 385.886 264.834 385.886C262.183 385.886 260.062 387.212 258.471 389.864C256.88 392.515 256.077 396.485 256.062 401.773C256.062 405.348 256.418 408.333 257.13 410.727C257.857 413.106 258.88 414.894 260.198 416.091C261.516 417.273 263.062 417.864 264.834 417.864Z" fill="#295A47"/>
<path d="M773.773 425V417.909L790.341 402.568C791.75 401.205 792.932 399.977 793.886 398.886C794.856 397.795 795.591 396.727 796.091 395.682C796.591 394.621 796.841 393.477 796.841 392.25C796.841 390.886 796.53 389.712 795.909 388.727C795.288 387.727 794.439 386.962 793.364 386.432C792.288 385.886 791.068 385.614 789.705 385.614C788.28 385.614 787.038 385.902 785.977 386.477C784.917 387.053 784.098 387.879 783.523 388.955C782.947 390.03 782.659 391.311 782.659 392.795H773.318C773.318 389.75 774.008 387.106 775.386 384.864C776.765 382.621 778.697 380.886 781.182 379.659C783.667 378.432 786.53 377.818 789.773 377.818C793.106 377.818 796.008 378.409 798.477 379.591C800.962 380.758 802.894 382.379 804.273 384.455C805.652 386.53 806.341 388.909 806.341 391.591C806.341 393.348 805.992 395.083 805.295 396.795C804.614 398.508 803.394 400.409 801.636 402.5C799.879 404.576 797.402 407.068 794.205 409.977L787.409 416.636V416.955H806.955V425H773.773ZM829.584 425.636C826.372 425.636 823.508 425.045 820.993 423.864C818.493 422.682 816.508 421.053 815.039 418.977C813.569 416.902 812.804 414.523 812.743 411.841H822.289C822.395 413.644 823.152 415.106 824.562 416.227C825.971 417.348 827.645 417.909 829.584 417.909C831.13 417.909 832.493 417.568 833.675 416.886C834.872 416.189 835.804 415.227 836.471 414C837.152 412.758 837.493 411.333 837.493 409.727C837.493 408.091 837.145 406.652 836.448 405.409C835.766 404.167 834.819 403.197 833.607 402.5C832.395 401.803 831.008 401.447 829.448 401.432C828.084 401.432 826.758 401.712 825.471 402.273C824.198 402.833 823.205 403.598 822.493 404.568L813.743 403L815.948 378.455H844.402V386.5H824.062L822.857 398.159H823.13C823.948 397.008 825.183 396.053 826.834 395.295C828.486 394.538 830.334 394.159 832.38 394.159C835.183 394.159 837.683 394.818 839.88 396.136C842.077 397.455 843.812 399.265 845.084 401.568C846.357 403.856 846.986 406.492 846.971 409.477C846.986 412.614 846.258 415.402 844.789 417.841C843.334 420.265 841.296 422.174 838.675 423.568C836.069 424.947 833.039 425.636 829.584 425.636Z" fill="#602300"/>
<defs>
<clipPath id="clip0_28_633">
<rect width="64" height="64" fill="white" transform="translate(326 198)"/>
</clipPath>
<clipPath id="clip1_28_633">
<rect width="64" height="64" fill="white" transform="translate(30 198)"/>
</clipPath>
<clipPath id="clip2_28_633">
<rect width="64" height="64" fill="white" transform="translate(342 214)"/>
</clipPath>
<clipPath id="clip3_28_633">
<rect width="64" height="64" fill="white" transform="translate(46 214)"/>
</clipPath>
<clipPath id="clip4_28_633">
<rect width="64" height="64" fill="white" transform="translate(358 230)"/>
</clipPath>
<clipPath id="clip5_28_633">
<rect width="64" height="64" fill="white" transform="translate(62 230)"/>
</clipPath>
<clipPath id="clip6_28_633">
<rect width="64" height="64" fill="white" transform="translate(883 210)"/>
</clipPath>
<clipPath id="clip7_28_633">
<rect width="64" height="64" fill="white" transform="translate(587 210)"/>
</clipPath>
<clipPath id="clip8_28_633">
<rect width="64" height="64" fill="white" transform="translate(899 226)"/>
</clipPath>
<clipPath id="clip9_28_633">
<rect width="64" height="64" fill="white" transform="translate(603 226)"/>
</clipPath>
<clipPath id="clip10_28_633">
<rect width="64" height="64" fill="white" transform="translate(915 242)"/>
</clipPath>
<clipPath id="clip11_28_633">
<rect width="64" height="64" fill="white" transform="translate(619 242)"/>
</clipPath>
</defs>
</svg>
