<svg width="203" height="325" viewBox="0 0 203 325" fill="none" xmlns="http://www.w3.org/2000/svg">
<path d="M200 3V322H3V3H200Z" fill="white" stroke="#CD5400" stroke-width="6"/>
<path d="M71.365 49.1387V31.6841H77.9105C79.2514 31.6841 80.3764 31.9171 81.2855 32.383C82.2003 32.8489 82.8906 33.5023 83.3565 34.3432C83.8281 35.1784 84.0639 36.1529 84.0639 37.2665C84.0639 38.3858 83.8253 39.3574 83.348 40.1813C82.8764 40.9995 82.1804 41.633 81.2599 42.0819C80.3395 42.525 79.2088 42.7466 77.8679 42.7466H73.206V40.1216H77.4418C78.2258 40.1216 78.8679 40.0137 79.3679 39.7978C79.8679 39.5762 80.2372 39.2551 80.4758 38.8347C80.7202 38.4086 80.8423 37.8858 80.8423 37.2665C80.8423 36.6472 80.7202 36.1188 80.4758 35.6813C80.2315 35.2381 79.8594 34.9029 79.3594 34.6756C78.8594 34.4426 78.2145 34.3262 77.4247 34.3262H74.527V49.1387H71.365ZM80.3821 41.2296L84.7031 49.1387H81.1747L76.9304 41.2296H80.3821ZM86.6421 49.1387V36.0478H89.7273V49.1387H86.6421ZM88.1932 34.1898C87.7046 34.1898 87.2841 34.0279 86.9318 33.704C86.5796 33.3745 86.4034 32.9796 86.4034 32.5194C86.4034 32.0534 86.5796 31.6586 86.9318 31.3347C87.2841 31.0051 87.7046 30.8404 88.1932 30.8404C88.6875 30.8404 89.108 31.0051 89.4546 31.3347C89.8068 31.6586 89.983 32.0534 89.983 32.5194C89.983 32.9796 89.8068 33.3745 89.4546 33.704C89.108 34.0279 88.6875 34.1898 88.1932 34.1898ZM103.05 39.508L100.238 39.8148C100.158 39.5307 100.019 39.2637 99.8203 39.0137C99.6272 38.7637 99.3658 38.562 99.0363 38.4086C98.7067 38.2551 98.3033 38.1784 97.826 38.1784C97.184 38.1784 96.6442 38.3176 96.2067 38.5961C95.7749 38.8745 95.5618 39.2353 95.5675 39.6784C95.5618 40.0591 95.701 40.3688 95.9851 40.6074C96.2749 40.8461 96.7522 41.0421 97.4169 41.1955L99.6499 41.6728C100.889 41.9398 101.809 42.3631 102.411 42.9426C103.019 43.5222 103.326 44.2807 103.332 45.2182C103.326 46.0421 103.085 46.7694 102.607 47.4C102.136 48.025 101.479 48.5137 100.639 48.8659C99.7976 49.2182 98.8317 49.3944 97.7408 49.3944C96.1385 49.3944 94.8488 49.0591 93.8715 48.3887C92.8942 47.7125 92.3118 46.7722 92.1243 45.5676L95.1328 45.2779C95.2692 45.8688 95.559 46.3148 96.0022 46.6159C96.4453 46.9171 97.0221 47.0676 97.7323 47.0676C98.4652 47.0676 99.0533 46.9171 99.4965 46.6159C99.9453 46.3148 100.17 45.9426 100.17 45.4995C100.17 45.1245 100.025 44.8148 99.7351 44.5705C99.451 44.3262 99.0078 44.1387 98.4056 44.008L96.1726 43.5392C94.9169 43.2779 93.988 42.8375 93.3857 42.2182C92.7834 41.5932 92.4851 40.8034 92.4908 39.8489C92.4851 39.0421 92.7039 38.3432 93.1471 37.7523C93.5959 37.1557 94.2181 36.6955 95.0135 36.3716C95.8147 36.0421 96.738 35.8773 97.7834 35.8773C99.3175 35.8773 100.525 36.204 101.406 36.8574C102.292 37.5108 102.84 38.3944 103.05 39.508ZM111.39 49.3944C110.083 49.3944 108.961 49.1074 108.023 48.5336C107.092 47.9597 106.373 47.1671 105.867 46.1557C105.367 45.1387 105.117 43.9682 105.117 42.6444C105.117 41.3148 105.373 40.1415 105.884 39.1245C106.396 38.1017 107.117 37.3063 108.049 36.7381C108.987 36.1642 110.095 35.8773 111.373 35.8773C112.435 35.8773 113.376 36.0733 114.194 36.4654C115.018 36.8517 115.674 37.4 116.163 38.1103C116.651 38.8148 116.93 39.6387 116.998 40.5819H114.049C113.93 39.9512 113.646 39.4256 113.197 39.0051C112.754 38.579 112.16 38.3659 111.416 38.3659C110.785 38.3659 110.231 38.5364 109.754 38.8773C109.276 39.2125 108.904 39.6955 108.637 40.3262C108.376 40.9569 108.245 41.7125 108.245 42.5932C108.245 43.4853 108.376 44.2523 108.637 44.8944C108.898 45.5307 109.265 46.0222 109.737 46.3688C110.214 46.7097 110.773 46.8801 111.416 46.8801C111.87 46.8801 112.276 46.7949 112.634 46.6245C112.998 46.4483 113.302 46.1955 113.546 45.8659C113.791 45.5364 113.958 45.1358 114.049 44.6642H116.998C116.924 45.5904 116.651 46.4114 116.18 47.1273C115.708 47.8375 115.066 48.3944 114.254 48.7978C113.441 49.1955 112.487 49.3944 111.39 49.3944ZM125.046 49.3944C123.767 49.3944 122.659 49.1131 121.722 48.5506C120.784 47.9881 120.057 47.2012 119.54 46.1898C119.028 45.1784 118.773 43.9966 118.773 42.6444C118.773 41.2921 119.028 40.1074 119.54 39.0904C120.057 38.0733 120.784 37.2836 121.722 36.7211C122.659 36.1586 123.767 35.8773 125.046 35.8773C126.324 35.8773 127.432 36.1586 128.369 36.7211C129.307 37.2836 130.031 38.0733 130.543 39.0904C131.06 40.1074 131.318 41.2921 131.318 42.6444C131.318 43.9966 131.06 45.1784 130.543 46.1898C130.031 47.2012 129.307 47.9881 128.369 48.5506C127.432 49.1131 126.324 49.3944 125.046 49.3944ZM125.063 46.9228C125.756 46.9228 126.335 46.7324 126.801 46.3517C127.267 45.9654 127.614 45.4483 127.841 44.8006C128.074 44.1529 128.19 43.4313 128.19 42.6358C128.19 41.8347 128.074 41.1103 127.841 40.4625C127.614 39.8091 127.267 39.2892 126.801 38.9029C126.335 38.5165 125.756 38.3233 125.063 38.3233C124.352 38.3233 123.761 38.5165 123.29 38.9029C122.824 39.2892 122.475 39.8091 122.242 40.4625C122.014 41.1103 121.901 41.8347 121.901 42.6358C121.901 43.4313 122.014 44.1529 122.242 44.8006C122.475 45.4483 122.824 45.9654 123.29 46.3517C123.761 46.7324 124.352 46.9228 125.063 46.9228Z" fill="#CD5400"/>
<rect x="6" y="68" width="191" height="66" fill="#CD5400"/>
<path d="M66.9265 82.3281H65.06C65.0259 82.0866 64.9563 81.8722 64.8512 81.6847C64.7461 81.4943 64.6112 81.3324 64.4464 81.1989C64.2816 81.0653 64.0913 80.9631 63.8754 80.892C63.6623 80.821 63.4308 80.7855 63.1808 80.7855C62.7291 80.7855 62.3356 80.8977 62.0004 81.1222C61.6651 81.3437 61.4052 81.6676 61.2205 82.0938C61.0359 82.517 60.9436 83.0312 60.9436 83.6364C60.9436 84.2585 61.0359 84.7812 61.2205 85.2045C61.408 85.6278 61.6694 85.9474 62.0046 86.1634C62.3399 86.3793 62.7276 86.4872 63.168 86.4872C63.4151 86.4872 63.6438 86.4545 63.8541 86.3892C64.0671 86.3239 64.2561 86.2287 64.4208 86.1037C64.5856 85.9759 64.722 85.821 64.8299 85.6392C64.9407 85.4574 65.0174 85.25 65.06 85.017L66.9265 85.0256C66.8782 85.4261 66.7575 85.8125 66.5643 86.1847C66.374 86.554 66.1169 86.8849 65.793 87.1776C65.472 87.4673 65.0884 87.6974 64.6424 87.8679C64.1992 88.0355 63.6978 88.1193 63.1382 88.1193C62.3598 88.1193 61.6637 87.9432 61.0501 87.5909C60.4393 87.2386 59.9563 86.7287 59.6012 86.0611C59.249 85.3935 59.0728 84.5852 59.0728 83.6364C59.0728 82.6847 59.2518 81.875 59.6098 81.2074C59.9677 80.5398 60.4535 80.0312 61.0671 79.6818C61.6808 79.3295 62.3711 79.1534 63.1382 79.1534C63.6438 79.1534 64.1126 79.2244 64.5444 79.3665C64.9791 79.5085 65.364 79.7159 65.6992 79.9886C66.0345 80.2585 66.3072 80.5895 66.5174 80.9815C66.7305 81.3736 66.8669 81.8224 66.9265 82.3281ZM69.8861 88.1236C69.4684 88.1236 69.0963 88.0511 68.7696 87.9062C68.4429 87.7585 68.1843 87.5412 67.994 87.2543C67.8065 86.9645 67.7128 86.6037 67.7128 86.1719C67.7128 85.8082 67.7795 85.5028 67.913 85.2557C68.0466 85.0085 68.2284 84.8097 68.4585 84.6591C68.6886 84.5085 68.95 84.3949 69.2426 84.3182C69.538 84.2415 69.8477 84.1875 70.1716 84.1562C70.5522 84.1165 70.8591 84.0795 71.092 84.0455C71.325 84.0085 71.494 83.9545 71.5991 83.8835C71.7042 83.8125 71.7568 83.7074 71.7568 83.5682V83.5426C71.7568 83.2727 71.6716 83.0639 71.5011 82.9162C71.3335 82.7685 71.0949 82.6946 70.7852 82.6946C70.4585 82.6946 70.1986 82.767 70.0054 82.9119C69.8122 83.054 69.6843 83.233 69.6218 83.4489L67.9429 83.3125C68.0281 82.9148 68.1957 82.571 68.4457 82.2812C68.6957 81.9886 69.0182 81.7642 69.413 81.608C69.8108 81.4489 70.271 81.3693 70.7937 81.3693C71.1574 81.3693 71.5054 81.4119 71.8378 81.4972C72.173 81.5824 72.4699 81.7145 72.7284 81.8935C72.9897 82.0724 73.1957 82.3026 73.3463 82.5838C73.4968 82.8622 73.5721 83.196 73.5721 83.5852V88H71.8505V87.0923H71.7994C71.6943 87.2969 71.5537 87.4773 71.3775 87.6335C71.2014 87.7869 70.9897 87.9077 70.7426 87.9957C70.4954 88.081 70.2099 88.1236 69.8861 88.1236ZM70.4059 86.8707C70.673 86.8707 70.9088 86.8182 71.1133 86.7131C71.3179 86.6051 71.4784 86.4602 71.5949 86.2784C71.7113 86.0966 71.7696 85.8906 71.7696 85.6605V84.9659C71.7128 85.0028 71.6346 85.0369 71.5352 85.0682C71.4386 85.0966 71.3292 85.1236 71.2071 85.1491C71.0849 85.1719 70.9628 85.1932 70.8406 85.2131C70.7184 85.2301 70.6076 85.2457 70.5082 85.2599C70.2951 85.2912 70.1091 85.3409 69.95 85.4091C69.7909 85.4773 69.6673 85.5696 69.5792 85.6861C69.4912 85.7997 69.4471 85.9418 69.4471 86.1122C69.4471 86.3594 69.5366 86.5483 69.7156 86.679C69.8974 86.8068 70.1275 86.8707 70.4059 86.8707ZM78.266 81.4545V82.8182H74.3243V81.4545H78.266ZM75.2192 79.8864H77.0345V85.9886C77.0345 86.1562 77.0601 86.2869 77.1112 86.3807C77.1624 86.4716 77.2334 86.5355 77.3243 86.5724C77.418 86.6094 77.526 86.6278 77.6481 86.6278C77.7334 86.6278 77.8186 86.6207 77.9038 86.6065C77.9891 86.5895 78.0544 86.5767 78.0999 86.5682L78.3854 87.919C78.2945 87.9474 78.1666 87.9801 78.0018 88.017C77.8371 88.0568 77.6368 88.081 77.401 88.0895C76.9635 88.1065 76.58 88.0483 76.2504 87.9148C75.9237 87.7812 75.6695 87.5739 75.4876 87.2926C75.3058 87.0114 75.2163 86.6562 75.2192 86.2273V79.8864ZM82.1652 88.1278C81.4919 88.1278 80.9124 87.9915 80.4266 87.7188C79.9436 87.4432 79.5715 87.054 79.3101 86.5511C79.0487 86.0455 78.9181 85.4474 78.9181 84.7571C78.9181 84.0838 79.0487 83.4929 79.3101 82.9844C79.5715 82.4759 79.9394 82.0795 80.4138 81.7955C80.8911 81.5114 81.4507 81.3693 82.0928 81.3693C82.5246 81.3693 82.9266 81.4389 83.2987 81.5781C83.6737 81.7145 84.0004 81.9205 84.2789 82.196C84.5601 82.4716 84.7789 82.8182 84.9351 83.2358C85.0914 83.6506 85.1695 84.1364 85.1695 84.6932V85.1918H79.6425V84.0668H83.4607C83.4607 83.8054 83.4039 83.5739 83.2902 83.3722C83.1766 83.1705 83.0189 83.0128 82.8172 82.8991C82.6183 82.7827 82.3868 82.7244 82.1226 82.7244C81.847 82.7244 81.6027 82.7884 81.3897 82.9162C81.1794 83.0412 81.0147 83.2102 80.8953 83.4233C80.776 83.6335 80.7149 83.8679 80.7121 84.1264V85.196C80.7121 85.5199 80.7718 85.7997 80.8911 86.0355C81.0132 86.2713 81.1851 86.4531 81.4067 86.581C81.6283 86.7088 81.8911 86.7727 82.195 86.7727C82.3968 86.7727 82.5814 86.7443 82.749 86.6875C82.9166 86.6307 83.0601 86.5455 83.1794 86.4318C83.2987 86.3182 83.3897 86.179 83.4522 86.0142L85.1311 86.125C85.0459 86.5284 84.8712 86.8807 84.607 87.1818C84.3456 87.4801 84.0075 87.7131 83.5928 87.8807C83.1808 88.0455 82.705 88.1278 82.1652 88.1278ZM89.107 90.5909C88.5189 90.5909 88.0147 90.5099 87.5942 90.348C87.1766 90.1889 86.8442 89.9716 86.5971 89.696C86.3499 89.4205 86.1894 89.1108 86.1155 88.767L87.7945 88.5412C87.8456 88.6719 87.9266 88.794 88.0374 88.9077C88.1482 89.0213 88.2945 89.1122 88.4763 89.1804C88.661 89.2514 88.8854 89.2869 89.1496 89.2869C89.5445 89.2869 89.8698 89.1903 90.1255 88.9972C90.384 88.8068 90.5132 88.4872 90.5132 88.0384V86.8409H90.4365C90.357 87.0227 90.2377 87.1946 90.0786 87.3565C89.9195 87.5185 89.715 87.6506 89.465 87.7528C89.215 87.8551 88.9167 87.9062 88.5701 87.9062C88.0786 87.9062 87.6311 87.7926 87.2277 87.5653C86.8272 87.3352 86.5076 86.9844 86.2689 86.5128C86.0331 86.0384 85.9152 85.4389 85.9152 84.7145C85.9152 83.973 86.036 83.3537 86.2775 82.8565C86.5189 82.3594 86.84 81.9872 87.2405 81.7401C87.6439 81.4929 88.0857 81.3693 88.5658 81.3693C88.9323 81.3693 89.2391 81.4318 89.4863 81.5568C89.7334 81.679 89.9323 81.8324 90.0828 82.017C90.2363 82.1989 90.3542 82.3778 90.4365 82.554H90.5047V81.4545H92.3073V88.0639C92.3073 88.6207 92.1709 89.0866 91.8982 89.4616C91.6255 89.8366 91.2476 90.1179 90.7647 90.3054C90.2846 90.4957 89.732 90.5909 89.107 90.5909ZM89.1453 86.5426C89.438 86.5426 89.6851 86.4702 89.8868 86.3253C90.0914 86.1776 90.2476 85.9673 90.3556 85.6946C90.4664 85.419 90.5218 85.0895 90.5218 84.706C90.5218 84.3224 90.4678 83.9901 90.3598 83.7088C90.2519 83.4247 90.0956 83.2045 89.8911 83.0483C89.6865 82.892 89.438 82.8139 89.1453 82.8139C88.8471 82.8139 88.5956 82.8949 88.3911 83.0568C88.1865 83.2159 88.0317 83.4375 87.9266 83.7216C87.8215 84.0057 87.7689 84.3338 87.7689 84.706C87.7689 85.0838 87.8215 85.4105 87.9266 85.6861C88.0346 85.9588 88.1894 86.1705 88.3911 86.321C88.5956 86.4687 88.8471 86.5426 89.1453 86.5426ZM96.5133 88.1278C95.8513 88.1278 95.2789 87.9872 94.7959 87.706C94.3158 87.4219 93.9451 87.027 93.6837 86.5213C93.4224 86.0128 93.2917 85.4233 93.2917 84.7528C93.2917 84.0767 93.4224 83.4858 93.6837 82.9801C93.9451 82.4716 94.3158 82.0767 94.7959 81.7955C95.2789 81.5114 95.8513 81.3693 96.5133 81.3693C97.1752 81.3693 97.7462 81.5114 98.2263 81.7955C98.7093 82.0767 99.0815 82.4716 99.3428 82.9801C99.6042 83.4858 99.7349 84.0767 99.7349 84.7528C99.7349 85.4233 99.6042 86.0128 99.3428 86.5213C99.0815 87.027 98.7093 87.4219 98.2263 87.706C97.7462 87.9872 97.1752 88.1278 96.5133 88.1278ZM96.5218 86.7216C96.8229 86.7216 97.0743 86.6364 97.2761 86.4659C97.4778 86.2926 97.6297 86.0568 97.732 85.7585C97.8371 85.4602 97.8897 85.1207 97.8897 84.7401C97.8897 84.3594 97.8371 84.0199 97.732 83.7216C97.6297 83.4233 97.4778 83.1875 97.2761 83.0142C97.0743 82.8409 96.8229 82.7543 96.5218 82.7543C96.2178 82.7543 95.9621 82.8409 95.7547 83.0142C95.5502 83.1875 95.3954 83.4233 95.2903 83.7216C95.188 84.0199 95.1368 84.3594 95.1368 84.7401C95.1368 85.1207 95.188 85.4602 95.2903 85.7585C95.3954 86.0568 95.5502 86.2926 95.7547 86.4659C95.9621 86.6364 96.2178 86.7216 96.5218 86.7216ZM100.719 88V81.4545H102.479V82.5966H102.547C102.667 82.1903 102.867 81.8835 103.148 81.6761C103.429 81.4659 103.753 81.3608 104.12 81.3608C104.211 81.3608 104.309 81.3665 104.414 81.3778C104.519 81.3892 104.611 81.4048 104.691 81.4247V83.0355C104.606 83.0099 104.488 82.9872 104.337 82.9673C104.187 82.9474 104.049 82.9375 103.924 82.9375C103.657 82.9375 103.418 82.9957 103.208 83.1122C103.001 83.2259 102.836 83.3849 102.714 83.5895C102.594 83.794 102.535 84.0298 102.535 84.2969V88H100.719ZM105.433 88V81.4545H107.249V88H105.433ZM106.345 80.6108C106.075 80.6108 105.844 80.5213 105.651 80.3423C105.46 80.1605 105.365 79.9432 105.365 79.6903C105.365 79.4403 105.46 79.2259 105.651 79.0469C105.844 78.8651 106.075 78.7741 106.345 78.7741C106.615 78.7741 106.845 78.8651 107.036 79.0469C107.229 79.2259 107.325 79.4403 107.325 79.6903C107.325 79.9432 107.229 80.1605 107.036 80.3423C106.845 80.5213 106.615 80.6108 106.345 80.6108ZM110.373 88.1236C109.956 88.1236 109.584 88.0511 109.257 87.9062C108.93 87.7585 108.672 87.5412 108.481 87.2543C108.294 86.9645 108.2 86.6037 108.2 86.1719C108.2 85.8082 108.267 85.5028 108.4 85.2557C108.534 85.0085 108.716 84.8097 108.946 84.6591C109.176 84.5085 109.437 84.3949 109.73 84.3182C110.025 84.2415 110.335 84.1875 110.659 84.1562C111.04 84.1165 111.346 84.0795 111.579 84.0455C111.812 84.0085 111.981 83.9545 112.086 83.8835C112.192 83.8125 112.244 83.7074 112.244 83.5682V83.5426C112.244 83.2727 112.159 83.0639 111.988 82.9162C111.821 82.7685 111.582 82.6946 111.273 82.6946C110.946 82.6946 110.686 82.767 110.493 82.9119C110.3 83.054 110.172 83.233 110.109 83.4489L108.43 83.3125C108.515 82.9148 108.683 82.571 108.933 82.2812C109.183 81.9886 109.506 81.7642 109.9 81.608C110.298 81.4489 110.758 81.3693 111.281 81.3693C111.645 81.3693 111.993 81.4119 112.325 81.4972C112.66 81.5824 112.957 81.7145 113.216 81.8935C113.477 82.0724 113.683 82.3026 113.834 82.5838C113.984 82.8622 114.06 83.196 114.06 83.5852V88H112.338V87.0923H112.287C112.182 87.2969 112.041 87.4773 111.865 87.6335C111.689 87.7869 111.477 87.9077 111.23 87.9957C110.983 88.081 110.697 88.1236 110.373 88.1236ZM110.893 86.8707C111.16 86.8707 111.396 86.8182 111.601 86.7131C111.805 86.6051 111.966 86.4602 112.082 86.2784C112.199 86.0966 112.257 85.8906 112.257 85.6605V84.9659C112.2 85.0028 112.122 85.0369 112.023 85.0682C111.926 85.0966 111.817 85.1236 111.694 85.1491C111.572 85.1719 111.45 85.1932 111.328 85.2131C111.206 85.2301 111.095 85.2457 110.996 85.2599C110.783 85.2912 110.596 85.3409 110.437 85.4091C110.278 85.4773 110.155 85.5696 110.067 85.6861C109.979 85.7997 109.935 85.9418 109.935 86.1122C109.935 86.3594 110.024 86.5483 110.203 86.679C110.385 86.8068 110.615 86.8707 110.893 86.8707ZM116.333 88.1108C116.052 88.1108 115.81 88.0114 115.609 87.8125C115.41 87.6108 115.31 87.3693 115.31 87.0881C115.31 86.8097 115.41 86.571 115.609 86.3722C115.81 86.1733 116.052 86.0739 116.333 86.0739C116.606 86.0739 116.844 86.1733 117.049 86.3722C117.253 86.571 117.356 86.8097 117.356 87.0881C117.356 87.2756 117.307 87.4474 117.211 87.6037C117.117 87.7571 116.993 87.8807 116.84 87.9744C116.687 88.0653 116.518 88.1108 116.333 88.1108ZM116.333 83.5256C116.052 83.5256 115.81 83.4261 115.609 83.2273C115.41 83.0284 115.31 82.7869 115.31 82.5028C115.31 82.2244 115.41 81.9872 115.609 81.7912C115.81 81.5923 116.052 81.4929 116.333 81.4929C116.606 81.4929 116.844 81.5923 117.049 81.7912C117.253 81.9872 117.356 82.2244 117.356 82.5028C117.356 82.6932 117.307 82.8665 117.211 83.0227C117.117 83.1761 116.993 83.2983 116.84 83.3892C116.687 83.4801 116.518 83.5256 116.333 83.5256ZM121.922 88H120.814L124.018 79.2727H125.109L128.314 88H127.206L124.598 80.6534H124.53L121.922 88ZM122.331 84.5909H126.797V85.5284H122.331V84.5909ZM131.777 81.4545V82.3068H128.385V81.4545H131.777ZM129.374 79.8864H130.38V86.125C130.38 86.4091 130.421 86.6222 130.503 86.7642C130.588 86.9034 130.696 86.9972 130.827 87.0455C130.961 87.0909 131.101 87.1136 131.249 87.1136C131.36 87.1136 131.451 87.108 131.522 87.0966C131.593 87.0824 131.649 87.071 131.692 87.0625L131.897 87.9659C131.828 87.9915 131.733 88.017 131.611 88.0426C131.489 88.071 131.334 88.0852 131.147 88.0852C130.863 88.0852 130.584 88.0241 130.311 87.902C130.041 87.7798 129.817 87.5938 129.638 87.3438C129.462 87.0938 129.374 86.7784 129.374 86.3977V79.8864ZM135.683 88.1364C135.092 88.1364 134.573 87.9957 134.127 87.7145C133.684 87.4332 133.338 87.0398 133.088 86.5341C132.841 86.0284 132.717 85.4375 132.717 84.7614C132.717 84.0795 132.841 83.4844 133.088 82.9759C133.338 82.4673 133.684 82.0724 134.127 81.7912C134.573 81.5099 135.092 81.3693 135.683 81.3693C136.274 81.3693 136.791 81.5099 137.234 81.7912C137.68 82.0724 138.027 82.4673 138.274 82.9759C138.524 83.4844 138.649 84.0795 138.649 84.7614C138.649 85.4375 138.524 86.0284 138.274 86.5341C138.027 87.0398 137.68 87.4332 137.234 87.7145C136.791 87.9957 136.274 88.1364 135.683 88.1364ZM135.683 87.233C136.132 87.233 136.501 87.1179 136.791 86.8878C137.081 86.6577 137.295 86.3551 137.434 85.9801C137.573 85.6051 137.643 85.1989 137.643 84.7614C137.643 84.3239 137.573 83.9162 137.434 83.5384C137.295 83.1605 137.081 82.8551 136.791 82.6222C136.501 82.3892 136.132 82.2727 135.683 82.2727C135.234 82.2727 134.865 82.3892 134.575 82.6222C134.285 82.8551 134.071 83.1605 133.931 83.5384C133.792 83.9162 133.723 84.3239 133.723 84.7614C133.723 85.1989 133.792 85.6051 133.931 85.9801C134.071 86.3551 134.285 86.6577 134.575 86.8878C134.865 87.1179 135.234 87.233 135.683 87.233ZM139.988 88V81.4545H140.959V82.4432H141.028C141.147 82.1193 141.363 81.8565 141.675 81.6548C141.988 81.4531 142.34 81.3523 142.732 81.3523C142.806 81.3523 142.898 81.3537 143.009 81.3565C143.12 81.3594 143.204 81.3636 143.261 81.3693V82.392C143.227 82.3835 143.148 82.3707 143.026 82.3537C142.907 82.3338 142.781 82.3239 142.647 82.3239C142.329 82.3239 142.045 82.3906 141.795 82.5241C141.548 82.6548 141.352 82.8366 141.207 83.0696C141.065 83.2997 140.994 83.5625 140.994 83.858V88H139.988Z" fill="white"/>
<path d="M18.8427 105V96.2727H22.2859C22.945 96.2727 23.5075 96.3906 23.9734 96.6264C24.4421 96.8594 24.7987 97.1903 25.043 97.6193C25.2902 98.0455 25.4137 98.5469 25.4137 99.1236C25.4137 99.7031 25.2887 100.202 25.0387 100.619C24.7887 101.034 24.4265 101.352 23.9521 101.574C23.4805 101.795 22.9095 101.906 22.239 101.906H19.9336V100.423H21.9407C22.293 100.423 22.5856 100.375 22.8186 100.278C23.0515 100.182 23.2248 100.037 23.3385 99.8438C23.4549 99.6506 23.5132 99.4105 23.5132 99.1236C23.5132 98.8338 23.4549 98.5895 23.3385 98.3906C23.2248 98.1918 23.0501 98.0412 22.8143 97.9389C22.5813 97.8338 22.2873 97.7812 21.9322 97.7812H20.6879V105H18.8427ZM23.5558 101.028L25.7248 105H23.6879L21.5657 101.028H23.5558ZM26.4876 105V98.4545H28.303V105H26.4876ZM27.3996 97.6108C27.1297 97.6108 26.8981 97.5213 26.705 97.3423C26.5146 97.1605 26.4194 96.9432 26.4194 96.6903C26.4194 96.4403 26.5146 96.2259 26.705 96.0469C26.8981 95.8651 27.1297 95.7741 27.3996 95.7741C27.6694 95.7741 27.8996 95.8651 28.0899 96.0469C28.2831 96.2259 28.3797 96.4403 28.3797 96.6903C28.3797 96.9432 28.2831 97.1605 28.0899 97.3423C27.8996 97.5213 27.6694 97.6108 27.3996 97.6108ZM35.0072 100.321L33.3452 100.423C33.3168 100.281 33.2558 100.153 33.162 100.04C33.0683 99.9233 32.9447 99.831 32.7913 99.7628C32.6407 99.6918 32.4603 99.6562 32.2501 99.6562C31.9688 99.6562 31.7316 99.7159 31.5384 99.8352C31.3452 99.9517 31.2487 100.108 31.2487 100.304C31.2487 100.46 31.3112 100.592 31.4362 100.7C31.5612 100.808 31.7756 100.895 32.0796 100.96L33.2643 101.199C33.9006 101.33 34.3751 101.54 34.6876 101.83C35.0001 102.119 35.1563 102.5 35.1563 102.972C35.1563 103.401 35.0299 103.777 34.7771 104.101C34.5271 104.425 34.1833 104.678 33.7458 104.859C33.3112 105.038 32.8097 105.128 32.2416 105.128C31.3751 105.128 30.6847 104.947 30.1705 104.587C29.6592 104.223 29.3594 103.729 29.2714 103.104L31.0569 103.01C31.1109 103.274 31.2416 103.476 31.4489 103.615C31.6563 103.751 31.9219 103.82 32.2458 103.82C32.564 103.82 32.8197 103.759 33.0129 103.636C33.2089 103.511 33.3083 103.351 33.3112 103.155C33.3083 102.99 33.2387 102.855 33.1023 102.75C32.966 102.642 32.7558 102.56 32.4717 102.503L31.3381 102.277C30.6989 102.149 30.2231 101.928 29.9106 101.612C29.6009 101.297 29.4461 100.895 29.4461 100.406C29.4461 99.9858 29.5597 99.6236 29.787 99.3196C30.0171 99.0156 30.3396 98.7812 30.7543 98.6165C31.1719 98.4517 31.6606 98.3693 32.2202 98.3693C33.0469 98.3693 33.6975 98.544 34.1719 98.8935C34.6492 99.2429 34.9276 99.7187 35.0072 100.321ZM39.0608 105.128C38.3904 105.128 37.8137 104.986 37.3307 104.702C36.8506 104.415 36.4813 104.017 36.2228 103.509C35.9671 103 35.8392 102.415 35.8392 101.753C35.8392 101.082 35.9685 100.494 36.227 99.9886C36.4884 99.4801 36.8591 99.0838 37.3392 98.7997C37.8193 98.5128 38.3904 98.3693 39.0523 98.3693C39.6233 98.3693 40.1233 98.473 40.5523 98.6804C40.9813 98.8878 41.3208 99.179 41.5708 99.554C41.8208 99.929 41.9585 100.369 41.9841 100.875H40.271C40.2228 100.548 40.0949 100.286 39.8875 100.087C39.683 99.8849 39.4145 99.7841 39.0821 99.7841C38.8009 99.7841 38.5551 99.8608 38.3449 100.014C38.1375 100.165 37.9756 100.385 37.8591 100.675C37.7426 100.964 37.6844 101.315 37.6844 101.727C37.6844 102.145 37.7412 102.5 37.8549 102.793C37.9713 103.085 38.1347 103.308 38.3449 103.462C38.5551 103.615 38.8009 103.692 39.0821 103.692C39.2895 103.692 39.4756 103.649 39.6404 103.564C39.808 103.479 39.9458 103.355 40.0537 103.193C40.1645 103.028 40.237 102.831 40.271 102.601H41.9841C41.9557 103.101 41.8193 103.541 41.575 103.922C41.3335 104.3 40.9997 104.595 40.5736 104.808C40.1475 105.021 39.6432 105.128 39.0608 105.128ZM45.9078 105.128C45.2459 105.128 44.6734 104.987 44.1905 104.706C43.7103 104.422 43.3396 104.027 43.0782 103.521C42.8169 103.013 42.6862 102.423 42.6862 101.753C42.6862 101.077 42.8169 100.486 43.0782 99.9801C43.3396 99.4716 43.7103 99.0767 44.1905 98.7955C44.6734 98.5114 45.2459 98.3693 45.9078 98.3693C46.5697 98.3693 47.1407 98.5114 47.6209 98.7955C48.1038 99.0767 48.476 99.4716 48.7373 99.9801C48.9987 100.486 49.1294 101.077 49.1294 101.753C49.1294 102.423 48.9987 103.013 48.7373 103.521C48.476 104.027 48.1038 104.422 47.6209 104.706C47.1407 104.987 46.5697 105.128 45.9078 105.128ZM45.9163 103.722C46.2174 103.722 46.4689 103.636 46.6706 103.466C46.8723 103.293 47.0243 103.057 47.1265 102.759C47.2317 102.46 47.2842 102.121 47.2842 101.74C47.2842 101.359 47.2317 101.02 47.1265 100.722C47.0243 100.423 46.8723 100.187 46.6706 100.014C46.4689 99.8409 46.2174 99.7543 45.9163 99.7543C45.6123 99.7543 45.3567 99.8409 45.1493 100.014C44.9447 100.187 44.7899 100.423 44.6848 100.722C44.5825 101.02 44.5314 101.359 44.5314 101.74C44.5314 102.121 44.5825 102.46 44.6848 102.759C44.7899 103.057 44.9447 103.293 45.1493 103.466C45.3567 103.636 45.6123 103.722 45.9163 103.722ZM51.1749 105.111C50.8936 105.111 50.6521 105.011 50.4504 104.812C50.2516 104.611 50.1521 104.369 50.1521 104.088C50.1521 103.81 50.2516 103.571 50.4504 103.372C50.6521 103.173 50.8936 103.074 51.1749 103.074C51.4476 103.074 51.6862 103.173 51.8908 103.372C52.0953 103.571 52.1976 103.81 52.1976 104.088C52.1976 104.276 52.1493 104.447 52.0527 104.604C51.9589 104.757 51.8354 104.881 51.682 104.974C51.5286 105.065 51.3595 105.111 51.1749 105.111ZM51.1749 100.526C50.8936 100.526 50.6521 100.426 50.4504 100.227C50.2516 100.028 50.1521 99.7869 50.1521 99.5028C50.1521 99.2244 50.2516 98.9872 50.4504 98.7912C50.6521 98.5923 50.8936 98.4929 51.1749 98.4929C51.4476 98.4929 51.6862 98.5923 51.8908 98.7912C52.0953 98.9872 52.1976 99.2244 52.1976 99.5028C52.1976 99.6932 52.1493 99.8665 52.0527 100.023C51.9589 100.176 51.8354 100.298 51.682 100.389C51.5286 100.48 51.3595 100.526 51.1749 100.526ZM56.4057 105V96.2727H59.3546C60.0364 96.2727 60.5961 96.3892 61.0336 96.6222C61.4711 96.8523 61.7949 97.169 62.0052 97.5724C62.2154 97.9759 62.3205 98.4347 62.3205 98.9489C62.3205 99.4631 62.2154 99.919 62.0052 100.317C61.7949 100.714 61.4725 101.027 61.0378 101.254C60.6032 101.479 60.0478 101.591 59.3716 101.591H56.9853V100.636H59.3375C59.8035 100.636 60.1785 100.568 60.4625 100.432C60.7495 100.295 60.9569 100.102 61.0847 99.8523C61.2154 99.5994 61.2807 99.2983 61.2807 98.9489C61.2807 98.5994 61.2154 98.294 61.0847 98.0327C60.954 97.7713 60.7452 97.5696 60.4583 97.4276C60.1714 97.2827 59.7921 97.2102 59.3205 97.2102H57.4625V105H56.4057ZM60.5137 101.08L62.6614 105H61.4341L59.3205 101.08H60.5137ZM63.7491 105V98.4545H64.7548V105H63.7491ZM64.2605 97.3636C64.0645 97.3636 63.8955 97.2969 63.7534 97.1634C63.6142 97.0298 63.5446 96.8693 63.5446 96.6818C63.5446 96.4943 63.6142 96.3338 63.7534 96.2003C63.8955 96.0668 64.0645 96 64.2605 96C64.4565 96 64.6241 96.0668 64.7633 96.2003C64.9054 96.3338 64.9764 96.4943 64.9764 96.6818C64.9764 96.8693 64.9054 97.0298 64.7633 97.1634C64.6241 97.2969 64.4565 97.3636 64.2605 97.3636ZM71.0372 99.9205L70.1338 100.176C70.0769 100.026 69.9931 99.8793 69.8823 99.7372C69.7744 99.5923 69.6267 99.473 69.4392 99.3793C69.2517 99.2855 69.0116 99.2386 68.719 99.2386C68.3184 99.2386 67.9846 99.331 67.7176 99.5156C67.4534 99.6974 67.3213 99.929 67.3213 100.21C67.3213 100.46 67.4122 100.658 67.594 100.803C67.7758 100.947 68.0599 101.068 68.4463 101.165L69.4178 101.403C70.0031 101.545 70.4392 101.763 70.7261 102.055C71.013 102.345 71.1565 102.719 71.1565 103.176C71.1565 103.551 71.0485 103.886 70.8326 104.182C70.6196 104.477 70.3213 104.71 69.9377 104.881C69.5542 105.051 69.1082 105.136 68.5997 105.136C67.9321 105.136 67.3795 104.991 66.942 104.702C66.5045 104.412 66.2275 103.989 66.111 103.432L67.0656 103.193C67.1565 103.545 67.3284 103.81 67.5812 103.986C67.8369 104.162 68.1707 104.25 68.5826 104.25C69.0514 104.25 69.4235 104.151 69.6991 103.952C69.9775 103.75 70.1167 103.509 70.1167 103.227C70.1167 103 70.0372 102.81 69.8781 102.656C69.719 102.5 69.4747 102.384 69.1451 102.307L68.0542 102.051C67.4548 101.909 67.0144 101.689 66.7332 101.391C66.4548 101.089 66.3156 100.713 66.3156 100.261C66.3156 99.892 66.4193 99.5653 66.6267 99.2812C66.8369 98.9972 67.1224 98.7741 67.4832 98.6122C67.8468 98.4503 68.2588 98.3693 68.719 98.3693C69.3667 98.3693 69.8752 98.5114 70.2446 98.7955C70.6167 99.0795 70.8809 99.4545 71.0372 99.9205ZM75.1334 105.136C74.5198 105.136 73.9914 104.991 73.5482 104.702C73.105 104.412 72.7641 104.013 72.5255 103.504C72.2868 102.996 72.1675 102.415 72.1675 101.761C72.1675 101.097 72.2897 100.51 72.534 100.001C72.7812 99.4901 73.1249 99.0909 73.5652 98.804C74.0084 98.5142 74.5255 98.3693 75.1164 98.3693C75.5766 98.3693 75.9914 98.4545 76.3607 98.625C76.73 98.7955 77.0326 99.0341 77.2684 99.3409C77.5042 99.6477 77.6505 100.006 77.7073 100.415H76.7016C76.6249 100.116 76.4544 99.8523 76.1902 99.6222C75.9289 99.3892 75.5766 99.2727 75.1334 99.2727C74.7414 99.2727 74.3976 99.375 74.1022 99.5795C73.8096 99.7812 73.5809 100.067 73.4161 100.436C73.2542 100.803 73.1732 101.233 73.1732 101.727C73.1732 102.233 73.2527 102.673 73.4118 103.048C73.5738 103.423 73.801 103.714 74.0937 103.922C74.3891 104.129 74.7357 104.233 75.1334 104.233C75.3948 104.233 75.632 104.188 75.8451 104.097C76.0581 104.006 76.2385 103.875 76.3863 103.705C76.534 103.534 76.6391 103.33 76.7016 103.091H77.7073C77.6505 103.477 77.5098 103.825 77.2854 104.135C77.0638 104.442 76.7698 104.686 76.4033 104.868C76.0397 105.047 75.6164 105.136 75.1334 105.136ZM81.6406 105.136C81.0496 105.136 80.5312 104.996 80.0852 104.714C79.642 104.433 79.2954 104.04 79.0454 103.534C78.7982 103.028 78.6746 102.437 78.6746 101.761C78.6746 101.08 78.7982 100.484 79.0454 99.9759C79.2954 99.4673 79.642 99.0724 80.0852 98.7912C80.5312 98.5099 81.0496 98.3693 81.6406 98.3693C82.2315 98.3693 82.7485 98.5099 83.1917 98.7912C83.6377 99.0724 83.9843 99.4673 84.2315 99.9759C84.4815 100.484 84.6065 101.08 84.6065 101.761C84.6065 102.437 84.4815 103.028 84.2315 103.534C83.9843 104.04 83.6377 104.433 83.1917 104.714C82.7485 104.996 82.2315 105.136 81.6406 105.136ZM81.6406 104.233C82.0894 104.233 82.4587 104.118 82.7485 103.888C83.0383 103.658 83.2528 103.355 83.392 102.98C83.5312 102.605 83.6008 102.199 83.6008 101.761C83.6008 101.324 83.5312 100.916 83.392 100.538C83.2528 100.161 83.0383 99.8551 82.7485 99.6222C82.4587 99.3892 82.0894 99.2727 81.6406 99.2727C81.1917 99.2727 80.8224 99.3892 80.5326 99.6222C80.2428 99.8551 80.0283 100.161 79.8891 100.538C79.7499 100.916 79.6803 101.324 79.6803 101.761C79.6803 102.199 79.7499 102.605 79.8891 102.98C80.0283 103.355 80.2428 103.658 80.5326 103.888C80.8224 104.118 81.1917 104.233 81.6406 104.233ZM91.7837 105.136C91.1928 105.136 90.6743 104.996 90.2283 104.714C89.7851 104.433 89.4385 104.04 89.1885 103.534C88.9414 103.028 88.8178 102.437 88.8178 101.761C88.8178 101.08 88.9414 100.484 89.1885 99.9759C89.4385 99.4673 89.7851 99.0724 90.2283 98.7912C90.6743 98.5099 91.1928 98.3693 91.7837 98.3693C92.3746 98.3693 92.8917 98.5099 93.3348 98.7912C93.7809 99.0724 94.1275 99.4673 94.3746 99.9759C94.6246 100.484 94.7496 101.08 94.7496 101.761C94.7496 102.437 94.6246 103.028 94.3746 103.534C94.1275 104.04 93.7809 104.433 93.3348 104.714C92.8917 104.996 92.3746 105.136 91.7837 105.136ZM91.7837 104.233C92.2326 104.233 92.6019 104.118 92.8917 103.888C93.1814 103.658 93.3959 103.355 93.5351 102.98C93.6743 102.605 93.7439 102.199 93.7439 101.761C93.7439 101.324 93.6743 100.916 93.5351 100.538C93.3959 100.161 93.1814 99.8551 92.8917 99.6222C92.6019 99.3892 92.2326 99.2727 91.7837 99.2727C91.3348 99.2727 90.9655 99.3892 90.6758 99.6222C90.386 99.8551 90.1715 100.161 90.0323 100.538C89.8931 100.916 89.8235 101.324 89.8235 101.761C89.8235 102.199 89.8931 102.605 90.0323 102.98C90.1715 103.355 90.386 103.658 90.6758 103.888C90.9655 104.118 91.3348 104.233 91.7837 104.233ZM98.7479 105.136C98.1342 105.136 97.6058 104.991 97.1626 104.702C96.7194 104.412 96.3785 104.013 96.1399 103.504C95.9013 102.996 95.7819 102.415 95.7819 101.761C95.7819 101.097 95.9041 100.51 96.1484 100.001C96.3956 99.4901 96.7393 99.0909 97.1797 98.804C97.6229 98.5142 98.1399 98.3693 98.7308 98.3693C99.191 98.3693 99.6058 98.4545 99.9751 98.625C100.344 98.7955 100.647 99.0341 100.883 99.3409C101.119 99.6477 101.265 100.006 101.322 100.415H100.316C100.239 100.116 100.069 99.8523 99.8047 99.6222C99.5433 99.3892 99.191 99.2727 98.7479 99.2727C98.3558 99.2727 98.0121 99.375 97.7166 99.5795C97.424 99.7812 97.1953 100.067 97.0305 100.436C96.8686 100.803 96.7876 101.233 96.7876 101.727C96.7876 102.233 96.8672 102.673 97.0263 103.048C97.1882 103.423 97.4155 103.714 97.7081 103.922C98.0035 104.129 98.3501 104.233 98.7479 104.233C99.0092 104.233 99.2464 104.188 99.4595 104.097C99.6726 104.006 99.853 103.875 100.001 103.705C100.148 103.534 100.254 103.33 100.316 103.091H101.322C101.265 103.477 101.124 103.825 100.9 104.135C100.678 104.442 100.384 104.686 100.018 104.868C99.6541 105.047 99.2308 105.136 98.7479 105.136ZM104.522 105.153C104.107 105.153 103.731 105.075 103.393 104.919C103.055 104.76 102.786 104.531 102.587 104.233C102.389 103.932 102.289 103.568 102.289 103.142C102.289 102.767 102.363 102.463 102.511 102.23C102.658 101.994 102.856 101.81 103.103 101.676C103.35 101.543 103.623 101.443 103.921 101.378C104.222 101.31 104.525 101.256 104.829 101.216C105.227 101.165 105.549 101.126 105.796 101.101C106.046 101.072 106.228 101.026 106.342 100.96C106.458 100.895 106.516 100.781 106.516 100.619V100.585C106.516 100.165 106.401 99.8381 106.171 99.6051C105.944 99.3722 105.599 99.2557 105.136 99.2557C104.656 99.2557 104.279 99.3608 104.006 99.571C103.734 99.7812 103.542 100.006 103.431 100.244L102.477 99.9034C102.647 99.5057 102.874 99.196 103.158 98.9744C103.445 98.75 103.758 98.5937 104.096 98.5057C104.437 98.4148 104.772 98.3693 105.102 98.3693C105.312 98.3693 105.553 98.3949 105.826 98.446C106.102 98.4943 106.367 98.5952 106.623 98.7486C106.881 98.902 107.096 99.1335 107.266 99.4432C107.437 99.7528 107.522 100.168 107.522 100.688V105H106.516V104.114H106.465C106.397 104.256 106.283 104.408 106.124 104.57C105.965 104.732 105.754 104.869 105.489 104.983C105.225 105.097 104.903 105.153 104.522 105.153ZM104.675 104.25C105.073 104.25 105.408 104.172 105.681 104.016C105.957 103.859 106.164 103.658 106.303 103.411C106.445 103.163 106.516 102.903 106.516 102.631V101.71C106.474 101.761 106.38 101.808 106.235 101.851C106.093 101.891 105.928 101.926 105.741 101.957C105.556 101.986 105.376 102.011 105.2 102.034C105.026 102.054 104.886 102.071 104.778 102.085C104.516 102.119 104.272 102.175 104.045 102.251C103.82 102.325 103.639 102.437 103.499 102.588C103.363 102.736 103.295 102.937 103.295 103.193C103.295 103.543 103.424 103.807 103.683 103.986C103.944 104.162 104.275 104.25 104.675 104.25ZM113.798 99.9205L112.895 100.176C112.838 100.026 112.754 99.8793 112.643 99.7372C112.535 99.5923 112.387 99.473 112.2 99.3793C112.012 99.2855 111.772 99.2386 111.48 99.2386C111.079 99.2386 110.745 99.331 110.478 99.5156C110.214 99.6974 110.082 99.929 110.082 100.21C110.082 100.46 110.173 100.658 110.355 100.803C110.537 100.947 110.821 101.068 111.207 101.165L112.179 101.403C112.764 101.545 113.2 101.763 113.487 102.055C113.774 102.345 113.917 102.719 113.917 103.176C113.917 103.551 113.809 103.886 113.593 104.182C113.38 104.477 113.082 104.71 112.699 104.881C112.315 105.051 111.869 105.136 111.36 105.136C110.693 105.136 110.14 104.991 109.703 104.702C109.265 104.412 108.988 103.989 108.872 103.432L109.826 103.193C109.917 103.545 110.089 103.81 110.342 103.986C110.598 104.162 110.931 104.25 111.343 104.25C111.812 104.25 112.184 104.151 112.46 103.952C112.738 103.75 112.878 103.509 112.878 103.227C112.878 103 112.798 102.81 112.639 102.656C112.48 102.5 112.235 102.384 111.906 102.307L110.815 102.051C110.216 101.909 109.775 101.689 109.494 101.391C109.216 101.089 109.076 100.713 109.076 100.261C109.076 99.892 109.18 99.5653 109.387 99.2812C109.598 98.9972 109.883 98.7741 110.244 98.6122C110.608 98.4503 111.02 98.3693 111.48 98.3693C112.128 98.3693 112.636 98.5114 113.005 98.7955C113.378 99.0795 113.642 99.4545 113.798 99.9205ZM115.235 105V98.4545H116.241V105H115.235ZM115.747 97.3636C115.55 97.3636 115.381 97.2969 115.239 97.1634C115.1 97.0298 115.031 96.8693 115.031 96.6818C115.031 96.4943 115.1 96.3338 115.239 96.2003C115.381 96.0668 115.55 96 115.747 96C115.943 96 116.11 96.0668 116.249 96.2003C116.391 96.3338 116.462 96.4943 116.462 96.6818C116.462 96.8693 116.391 97.0298 116.249 97.1634C116.11 97.2969 115.943 97.3636 115.747 97.3636ZM120.546 105.136C119.955 105.136 119.437 104.996 118.99 104.714C118.547 104.433 118.201 104.04 117.951 103.534C117.704 103.028 117.58 102.437 117.58 101.761C117.58 101.08 117.704 100.484 117.951 99.9759C118.201 99.4673 118.547 99.0724 118.99 98.7912C119.437 98.5099 119.955 98.3693 120.546 98.3693C121.137 98.3693 121.654 98.5099 122.097 98.7912C122.543 99.0724 122.89 99.4673 123.137 99.9759C123.387 100.484 123.512 101.08 123.512 101.761C123.512 102.437 123.387 103.028 123.137 103.534C122.89 104.04 122.543 104.433 122.097 104.714C121.654 104.996 121.137 105.136 120.546 105.136ZM120.546 104.233C120.995 104.233 121.364 104.118 121.654 103.888C121.944 103.658 122.158 103.355 122.297 102.98C122.437 102.605 122.506 102.199 122.506 101.761C122.506 101.324 122.437 100.916 122.297 100.538C122.158 100.161 121.944 99.8551 121.654 99.6222C121.364 99.3892 120.995 99.2727 120.546 99.2727C120.097 99.2727 119.728 99.3892 119.438 99.6222C119.148 99.8551 118.934 100.161 118.794 100.538C118.655 100.916 118.586 101.324 118.586 101.761C118.586 102.199 118.655 102.605 118.794 102.98C118.934 103.355 119.148 103.658 119.438 103.888C119.728 104.118 120.097 104.233 120.546 104.233ZM125.857 101.062V105H124.851V98.4545H125.823V99.4773H125.908C126.061 99.1449 126.294 98.8778 126.607 98.6761C126.919 98.4716 127.323 98.3693 127.817 98.3693C128.26 98.3693 128.648 98.4602 128.98 98.642C129.313 98.821 129.571 99.0938 129.756 99.4602C129.94 99.8239 130.033 100.284 130.033 100.841V105H129.027V100.909C129.027 100.395 128.894 99.9943 128.627 99.7074C128.359 99.4176 127.993 99.2727 127.527 99.2727C127.206 99.2727 126.919 99.3423 126.666 99.4815C126.416 99.6207 126.219 99.8239 126.074 100.091C125.929 100.358 125.857 100.682 125.857 101.062ZM133.601 105.153C133.186 105.153 132.809 105.075 132.471 104.919C132.133 104.76 131.865 104.531 131.666 104.233C131.467 103.932 131.368 103.568 131.368 103.142C131.368 102.767 131.442 102.463 131.589 102.23C131.737 101.994 131.934 101.81 132.182 101.676C132.429 101.543 132.701 101.443 133 101.378C133.301 101.31 133.603 101.256 133.907 101.216C134.305 101.165 134.628 101.126 134.875 101.101C135.125 101.072 135.307 101.026 135.42 100.96C135.537 100.895 135.595 100.781 135.595 100.619V100.585C135.595 100.165 135.48 99.8381 135.25 99.6051C135.023 99.3722 134.677 99.2557 134.214 99.2557C133.734 99.2557 133.358 99.3608 133.085 99.571C132.812 99.7812 132.621 100.006 132.51 100.244L131.555 99.9034C131.726 99.5057 131.953 99.196 132.237 98.9744C132.524 98.75 132.836 98.5937 133.174 98.5057C133.515 98.4148 133.851 98.3693 134.18 98.3693C134.39 98.3693 134.632 98.3949 134.905 98.446C135.18 98.4943 135.446 98.5952 135.701 98.7486C135.96 98.902 136.174 99.1335 136.345 99.4432C136.515 99.7528 136.601 100.168 136.601 100.688V105H135.595V104.114H135.544C135.476 104.256 135.362 104.408 135.203 104.57C135.044 104.732 134.832 104.869 134.568 104.983C134.304 105.097 133.981 105.153 133.601 105.153ZM133.754 104.25C134.152 104.25 134.487 104.172 134.76 104.016C135.035 103.859 135.243 103.658 135.382 103.411C135.524 103.163 135.595 102.903 135.595 102.631V101.71C135.552 101.761 135.459 101.808 135.314 101.851C135.172 101.891 135.007 101.926 134.819 101.957C134.635 101.986 134.454 102.011 134.278 102.034C134.105 102.054 133.964 102.071 133.856 102.085C133.595 102.119 133.351 102.175 133.123 102.251C132.899 102.325 132.717 102.437 132.578 102.588C132.442 102.736 132.373 102.937 132.373 103.193C132.373 103.543 132.503 103.807 132.761 103.986C133.023 104.162 133.353 104.25 133.754 104.25ZM140.712 105.136C140.166 105.136 139.685 104.999 139.267 104.723C138.85 104.445 138.523 104.053 138.287 103.547C138.051 103.038 137.933 102.438 137.933 101.744C137.933 101.057 138.051 100.46 138.287 99.9545C138.523 99.4489 138.851 99.0582 139.271 98.7827C139.692 98.5071 140.178 98.3693 140.729 98.3693C141.155 98.3693 141.492 98.4403 141.739 98.5824C141.989 98.7216 142.179 98.8807 142.31 99.0597C142.443 99.2358 142.547 99.3807 142.621 99.4943H142.706V96.2727H143.712V105H142.74V103.994H142.621C142.547 104.114 142.442 104.264 142.306 104.446C142.169 104.625 141.975 104.786 141.722 104.928C141.469 105.067 141.132 105.136 140.712 105.136ZM140.848 104.233C141.252 104.233 141.592 104.128 141.871 103.918C142.149 103.705 142.361 103.411 142.506 103.036C142.651 102.658 142.723 102.222 142.723 101.727C142.723 101.239 142.652 100.811 142.51 100.445C142.368 100.075 142.158 99.7884 141.879 99.5838C141.601 99.3764 141.257 99.2727 140.848 99.2727C140.422 99.2727 140.067 99.3821 139.783 99.6009C139.502 99.8168 139.29 100.111 139.148 100.483C139.009 100.852 138.939 101.267 138.939 101.727C138.939 102.193 139.01 102.616 139.152 102.997C139.297 103.375 139.51 103.676 139.791 103.901C140.075 104.122 140.428 104.233 140.848 104.233ZM148.156 105.136C147.566 105.136 147.047 104.996 146.601 104.714C146.158 104.433 145.811 104.04 145.561 103.534C145.314 103.028 145.191 102.437 145.191 101.761C145.191 101.08 145.314 100.484 145.561 99.9759C145.811 99.4673 146.158 99.0724 146.601 98.7912C147.047 98.5099 147.566 98.3693 148.156 98.3693C148.747 98.3693 149.264 98.5099 149.708 98.7912C150.154 99.0724 150.5 99.4673 150.747 99.9759C150.997 100.484 151.122 101.08 151.122 101.761C151.122 102.437 150.997 103.028 150.747 103.534C150.5 104.04 150.154 104.433 149.708 104.714C149.264 104.996 148.747 105.136 148.156 105.136ZM148.156 104.233C148.605 104.233 148.975 104.118 149.264 103.888C149.554 103.658 149.769 103.355 149.908 102.98C150.047 102.605 150.117 102.199 150.117 101.761C150.117 101.324 150.047 100.916 149.908 100.538C149.769 100.161 149.554 99.8551 149.264 99.6222C148.975 99.3892 148.605 99.2727 148.156 99.2727C147.708 99.2727 147.338 99.3892 147.048 99.6222C146.759 99.8551 146.544 100.161 146.405 100.538C146.266 100.916 146.196 101.324 146.196 101.761C146.196 102.199 146.266 102.605 146.405 102.98C146.544 103.355 146.759 103.658 147.048 103.888C147.338 104.118 147.708 104.233 148.156 104.233ZM155.64 107.455V98.4545H156.612V99.4943H156.731C156.805 99.3807 156.908 99.2358 157.038 99.0597C157.172 98.8807 157.362 98.7216 157.609 98.5824C157.859 98.4403 158.197 98.3693 158.623 98.3693C159.175 98.3693 159.66 98.5071 160.081 98.7827C160.501 99.0582 160.829 99.4489 161.065 99.9545C161.301 100.46 161.419 101.057 161.419 101.744C161.419 102.438 161.301 103.038 161.065 103.547C160.829 104.053 160.503 104.445 160.085 104.723C159.667 104.999 159.186 105.136 158.64 105.136C158.22 105.136 157.883 105.067 157.631 104.928C157.378 104.786 157.183 104.625 157.047 104.446C156.91 104.264 156.805 104.114 156.731 103.994H156.646V107.455H155.64ZM156.629 101.727C156.629 102.222 156.702 102.658 156.846 103.036C156.991 103.411 157.203 103.705 157.481 103.918C157.76 104.128 158.101 104.233 158.504 104.233C158.925 104.233 159.275 104.122 159.557 103.901C159.841 103.676 160.054 103.375 160.196 102.997C160.341 102.616 160.413 102.193 160.413 101.727C160.413 101.267 160.342 100.852 160.2 100.483C160.061 100.111 159.849 99.8168 159.565 99.6009C159.284 99.3821 158.93 99.2727 158.504 99.2727C158.095 99.2727 157.751 99.3764 157.473 99.5838C157.194 99.7884 156.984 100.075 156.842 100.445C156.7 100.811 156.629 101.239 156.629 101.727ZM165.501 105.136C164.871 105.136 164.327 104.997 163.869 104.719C163.415 104.438 163.064 104.045 162.817 103.543C162.572 103.037 162.45 102.449 162.45 101.778C162.45 101.108 162.572 100.517 162.817 100.006C163.064 99.4915 163.408 99.0909 163.848 98.804C164.291 98.5142 164.808 98.3693 165.399 98.3693C165.74 98.3693 166.077 98.4261 166.409 98.5398C166.741 98.6534 167.044 98.8381 167.317 99.0938C167.589 99.3466 167.807 99.6818 167.969 100.099C168.131 100.517 168.212 101.031 168.212 101.642V102.068H163.166V101.199H167.189C167.189 100.83 167.115 100.5 166.967 100.21C166.822 99.9205 166.615 99.6918 166.345 99.5241C166.078 99.3565 165.763 99.2727 165.399 99.2727C164.998 99.2727 164.652 99.3722 164.359 99.571C164.07 99.767 163.846 100.023 163.69 100.338C163.534 100.653 163.456 100.991 163.456 101.352V101.932C163.456 102.426 163.541 102.845 163.712 103.189C163.885 103.53 164.125 103.79 164.432 103.969C164.739 104.145 165.095 104.233 165.501 104.233C165.766 104.233 166.004 104.196 166.217 104.122C166.433 104.045 166.619 103.932 166.775 103.781C166.932 103.628 167.052 103.437 167.138 103.21L168.109 103.483C168.007 103.812 167.835 104.102 167.594 104.352C167.352 104.599 167.054 104.793 166.699 104.932C166.344 105.068 165.945 105.136 165.501 105.136ZM170.551 96.2727V105H169.545V96.2727H170.551ZM174.123 105.153C173.708 105.153 173.332 105.075 172.994 104.919C172.656 104.76 172.387 104.531 172.188 104.233C171.99 103.932 171.89 103.568 171.89 103.142C171.89 102.767 171.964 102.463 172.112 102.23C172.26 101.994 172.457 101.81 172.704 101.676C172.951 101.543 173.224 101.443 173.522 101.378C173.823 101.31 174.126 101.256 174.43 101.216C174.828 101.165 175.15 101.126 175.397 101.101C175.647 101.072 175.829 101.026 175.943 100.96C176.059 100.895 176.117 100.781 176.117 100.619V100.585C176.117 100.165 176.002 99.8381 175.772 99.6051C175.545 99.3722 175.2 99.2557 174.737 99.2557C174.257 99.2557 173.88 99.3608 173.608 99.571C173.335 99.7812 173.143 100.006 173.032 100.244L172.078 99.9034C172.248 99.5057 172.475 99.196 172.76 98.9744C173.046 98.75 173.359 98.5937 173.697 98.5057C174.038 98.4148 174.373 98.3693 174.703 98.3693C174.913 98.3693 175.154 98.3949 175.427 98.446C175.703 98.4943 175.968 98.5952 176.224 98.7486C176.483 98.902 176.697 99.1335 176.867 99.4432C177.038 99.7528 177.123 100.168 177.123 100.688V105H176.117V104.114H176.066C175.998 104.256 175.885 104.408 175.725 104.57C175.566 104.732 175.355 104.869 175.09 104.983C174.826 105.097 174.504 105.153 174.123 105.153ZM174.277 104.25C174.674 104.25 175.01 104.172 175.282 104.016C175.558 103.859 175.765 103.658 175.904 103.411C176.046 103.163 176.117 102.903 176.117 102.631V101.71C176.075 101.761 175.981 101.808 175.836 101.851C175.694 101.891 175.529 101.926 175.342 101.957C175.157 101.986 174.977 102.011 174.801 102.034C174.627 102.054 174.487 102.071 174.379 102.085C174.117 102.119 173.873 102.175 173.646 102.251C173.421 102.325 173.24 102.437 173.1 102.588C172.964 102.736 172.896 102.937 172.896 103.193C172.896 103.543 173.025 103.807 173.284 103.986C173.545 104.162 173.876 104.25 174.277 104.25ZM183.399 99.9205L182.496 100.176C182.439 100.026 182.355 99.8793 182.244 99.7372C182.136 99.5923 181.989 99.473 181.801 99.3793C181.614 99.2855 181.374 99.2386 181.081 99.2386C180.68 99.2386 180.347 99.331 180.08 99.5156C179.815 99.6974 179.683 99.929 179.683 100.21C179.683 100.46 179.774 100.658 179.956 100.803C180.138 100.947 180.422 101.068 180.808 101.165L181.78 101.403C182.365 101.545 182.801 101.763 183.088 102.055C183.375 102.345 183.518 102.719 183.518 103.176C183.518 103.551 183.41 103.886 183.195 104.182C182.981 104.477 182.683 104.71 182.3 104.881C181.916 105.051 181.47 105.136 180.962 105.136C180.294 105.136 179.741 104.991 179.304 104.702C178.866 104.412 178.589 103.989 178.473 103.432L179.428 103.193C179.518 103.545 179.69 103.81 179.943 103.986C180.199 104.162 180.533 104.25 180.945 104.25C181.413 104.25 181.785 104.151 182.061 103.952C182.339 103.75 182.479 103.509 182.479 103.227C182.479 103 182.399 102.81 182.24 102.656C182.081 102.5 181.837 102.384 181.507 102.307L180.416 102.051C179.817 101.909 179.376 101.689 179.095 101.391C178.817 101.089 178.678 100.713 178.678 100.261C178.678 99.892 178.781 99.5653 178.989 99.2812C179.199 98.9972 179.484 98.7741 179.845 98.6122C180.209 98.4503 180.621 98.3693 181.081 98.3693C181.729 98.3693 182.237 98.5114 182.606 98.7955C182.979 99.0795 183.243 99.4545 183.399 99.9205ZM42.8875 119.136C42.3421 119.136 41.8606 118.999 41.4429 118.723C41.0253 118.445 40.6986 118.053 40.4628 117.547C40.227 117.038 40.1091 116.438 40.1091 115.744C40.1091 115.057 40.227 114.46 40.4628 113.955C40.6986 113.449 41.0267 113.058 41.4472 112.783C41.8677 112.507 42.3535 112.369 42.9046 112.369C43.3307 112.369 43.6674 112.44 43.9145 112.582C44.1645 112.722 44.3549 112.881 44.4856 113.06C44.6191 113.236 44.7228 113.381 44.7966 113.494H44.8819V110.273H45.8875V119H44.916V117.994H44.7966C44.7228 118.114 44.6177 118.264 44.4813 118.446C44.3449 118.625 44.1503 118.786 43.8975 118.928C43.6446 119.067 43.308 119.136 42.8875 119.136ZM43.0239 118.233C43.4273 118.233 43.7682 118.128 44.0466 117.918C44.325 117.705 44.5367 117.411 44.6816 117.036C44.8265 116.658 44.8989 116.222 44.8989 115.727C44.8989 115.239 44.8279 114.811 44.6858 114.445C44.5438 114.075 44.3336 113.788 44.0552 113.584C43.7767 113.376 43.433 113.273 43.0239 113.273C42.5978 113.273 42.2427 113.382 41.9586 113.601C41.6773 113.817 41.4657 114.111 41.3236 114.483C41.1844 114.852 41.1148 115.267 41.1148 115.727C41.1148 116.193 41.1858 116.616 41.3279 116.997C41.4728 117.375 41.6858 117.676 41.9671 117.901C42.2512 118.122 42.6035 118.233 43.0239 118.233ZM50.4174 119.136C49.7867 119.136 49.2427 118.997 48.7853 118.719C48.3307 118.438 47.9799 118.045 47.7327 117.543C47.4884 117.037 47.3663 116.449 47.3663 115.778C47.3663 115.108 47.4884 114.517 47.7327 114.006C47.9799 113.491 48.3236 113.091 48.764 112.804C49.2072 112.514 49.7242 112.369 50.3151 112.369C50.656 112.369 50.9927 112.426 51.3251 112.54C51.6575 112.653 51.96 112.838 52.2327 113.094C52.5055 113.347 52.7228 113.682 52.8847 114.099C53.0467 114.517 53.1276 115.031 53.1276 115.642V116.068H48.0822V115.199H52.1049C52.1049 114.83 52.031 114.5 51.8833 114.21C51.7384 113.92 51.531 113.692 51.2611 113.524C50.9941 113.357 50.6788 113.273 50.3151 113.273C49.9146 113.273 49.568 113.372 49.2754 113.571C48.9856 113.767 48.7626 114.023 48.6063 114.338C48.4501 114.653 48.3719 114.991 48.3719 115.352V115.932C48.3719 116.426 48.4572 116.845 48.6276 117.189C48.8009 117.53 49.041 117.79 49.3478 117.969C49.6546 118.145 50.0111 118.233 50.4174 118.233C50.6816 118.233 50.9202 118.196 51.1333 118.122C51.3492 118.045 51.5353 117.932 51.6915 117.781C51.8478 117.628 51.9685 117.437 52.0538 117.21L53.0254 117.483C52.9231 117.812 52.7512 118.102 52.5097 118.352C52.2682 118.599 51.97 118.793 51.6148 118.932C51.2597 119.068 50.8606 119.136 50.4174 119.136ZM57.3762 112.455V113.307H53.8478V112.455H57.3762ZM54.9046 119V111.551C54.9046 111.176 54.9927 110.864 55.1688 110.614C55.345 110.364 55.5737 110.176 55.8549 110.051C56.1362 109.926 56.433 109.864 56.7455 109.864C56.9927 109.864 57.1944 109.884 57.3507 109.923C57.5069 109.963 57.6234 110 57.7001 110.034L57.4103 110.903C57.3592 110.886 57.2882 110.865 57.1973 110.839C57.1092 110.814 56.9927 110.801 56.8478 110.801C56.5154 110.801 56.2754 110.885 56.1276 111.053C55.9828 111.22 55.9103 111.466 55.9103 111.79V119H54.9046ZM58.5897 119V112.455H59.5954V119H58.5897ZM59.101 111.364C58.905 111.364 58.736 111.297 58.5939 111.163C58.4547 111.03 58.3851 110.869 58.3851 110.682C58.3851 110.494 58.4547 110.334 58.5939 110.2C58.736 110.067 58.905 110 59.101 110C59.2971 110 59.4647 110.067 59.6039 110.2C59.7459 110.334 59.8169 110.494 59.8169 110.682C59.8169 110.869 59.7459 111.03 59.6039 111.163C59.4647 111.297 59.2971 111.364 59.101 111.364ZM63.9004 119.136C63.2868 119.136 62.7584 118.991 62.3152 118.702C61.872 118.412 61.5311 118.013 61.2925 117.504C61.0538 116.996 60.9345 116.415 60.9345 115.761C60.9345 115.097 61.0567 114.51 61.301 114.001C61.5481 113.49 61.8919 113.091 62.3322 112.804C62.7754 112.514 63.2925 112.369 63.8834 112.369C64.3436 112.369 64.7584 112.455 65.1277 112.625C65.497 112.795 65.7996 113.034 66.0354 113.341C66.2712 113.648 66.4175 114.006 66.4743 114.415H65.4686C65.3919 114.116 65.2214 113.852 64.9572 113.622C64.6959 113.389 64.3436 113.273 63.9004 113.273C63.5084 113.273 63.1646 113.375 62.8692 113.58C62.5766 113.781 62.3479 114.067 62.1831 114.436C62.0212 114.803 61.9402 115.233 61.9402 115.727C61.9402 116.233 62.0197 116.673 62.1788 117.048C62.3408 117.423 62.568 117.714 62.8606 117.922C63.1561 118.129 63.5027 118.233 63.9004 118.233C64.1618 118.233 64.399 118.188 64.6121 118.097C64.8251 118.006 65.0055 117.875 65.1533 117.705C65.301 117.534 65.4061 117.33 65.4686 117.091H66.4743C66.4175 117.477 66.2768 117.825 66.0524 118.135C65.8308 118.442 65.5368 118.686 65.1703 118.868C64.8067 119.047 64.3834 119.136 63.9004 119.136ZM67.7485 119V112.455H68.7541V119H67.7485ZM68.2598 111.364C68.0638 111.364 67.8948 111.297 67.7527 111.163C67.6135 111.03 67.5439 110.869 67.5439 110.682C67.5439 110.494 67.6135 110.334 67.7527 110.2C67.8948 110.067 68.0638 110 68.2598 110C68.4558 110 68.6235 110.067 68.7627 110.2C68.9047 110.334 68.9757 110.494 68.9757 110.682C68.9757 110.869 68.9047 111.03 68.7627 111.163C68.6235 111.297 68.4558 111.364 68.2598 111.364ZM73.1444 119.136C72.5137 119.136 71.9697 118.997 71.5123 118.719C71.0578 118.438 70.7069 118.045 70.4598 117.543C70.2154 117.037 70.0933 116.449 70.0933 115.778C70.0933 115.108 70.2154 114.517 70.4598 114.006C70.7069 113.491 71.0507 113.091 71.491 112.804C71.9342 112.514 72.4512 112.369 73.0422 112.369C73.3831 112.369 73.7197 112.426 74.0521 112.54C74.3845 112.653 74.687 112.838 74.9598 113.094C75.2325 113.347 75.4498 113.682 75.6118 114.099C75.7737 114.517 75.8547 115.031 75.8547 115.642V116.068H70.8092V115.199H74.8319C74.8319 114.83 74.7581 114.5 74.6103 114.21C74.4654 113.92 74.2581 113.692 73.9882 113.524C73.7211 113.357 73.4058 113.273 73.0422 113.273C72.6416 113.273 72.295 113.372 72.0024 113.571C71.7126 113.767 71.4896 114.023 71.3333 114.338C71.1771 114.653 71.099 114.991 71.099 115.352V115.932C71.099 116.426 71.1842 116.845 71.3547 117.189C71.5279 117.53 71.768 117.79 72.0748 117.969C72.3816 118.145 72.7382 118.233 73.1444 118.233C73.4086 118.233 73.6473 118.196 73.8603 118.122C74.0762 118.045 74.2623 117.932 74.4186 117.781C74.5748 117.628 74.6956 117.437 74.7808 117.21L75.7524 117.483C75.6501 117.812 75.4782 118.102 75.2368 118.352C74.9953 118.599 74.697 118.793 74.3419 118.932C73.9868 119.068 73.5876 119.136 73.1444 119.136ZM78.1942 115.062V119H77.1885V112.455H78.1601V113.477H78.2453C78.3987 113.145 78.6317 112.878 78.9442 112.676C79.2567 112.472 79.6601 112.369 80.1544 112.369C80.5976 112.369 80.9854 112.46 81.3177 112.642C81.6501 112.821 81.9087 113.094 82.0933 113.46C82.278 113.824 82.3703 114.284 82.3703 114.841V119H81.3646V114.909C81.3646 114.395 81.2311 113.994 80.9641 113.707C80.697 113.418 80.3305 113.273 79.8646 113.273C79.5436 113.273 79.2567 113.342 79.0038 113.482C78.7538 113.621 78.5564 113.824 78.4115 114.091C78.2666 114.358 78.1942 114.682 78.1942 115.062ZM86.6711 119.136C86.0575 119.136 85.5291 118.991 85.0859 118.702C84.6427 118.412 84.3018 118.013 84.0632 117.504C83.8245 116.996 83.7052 116.415 83.7052 115.761C83.7052 115.097 83.8274 114.51 84.0717 114.001C84.3188 113.49 84.6626 113.091 85.1029 112.804C85.5461 112.514 86.0632 112.369 86.6541 112.369C87.1143 112.369 87.5291 112.455 87.8984 112.625C88.2677 112.795 88.5703 113.034 88.806 113.341C89.0418 113.648 89.1882 114.006 89.245 114.415H88.2393C88.1626 114.116 87.9921 113.852 87.7279 113.622C87.4666 113.389 87.1143 113.273 86.6711 113.273C86.2791 113.273 85.9353 113.375 85.6399 113.58C85.3472 113.781 85.1185 114.067 84.9538 114.436C84.7918 114.803 84.7109 115.233 84.7109 115.727C84.7109 116.233 84.7904 116.673 84.9495 117.048C85.1114 117.423 85.3387 117.714 85.6313 117.922C85.9268 118.129 86.2734 118.233 86.6711 118.233C86.9325 118.233 87.1697 118.188 87.3828 118.097C87.5958 118.006 87.7762 117.875 87.9239 117.705C88.0717 117.534 88.1768 117.33 88.2393 117.091H89.245C89.1882 117.477 89.0475 117.825 88.8231 118.135C88.6015 118.442 88.3075 118.686 87.941 118.868C87.5774 119.047 87.1541 119.136 86.6711 119.136ZM90.5191 119V112.455H91.5248V119H90.5191ZM91.0305 111.364C90.8345 111.364 90.6654 111.297 90.5234 111.163C90.3842 111.03 90.3146 110.869 90.3146 110.682C90.3146 110.494 90.3842 110.334 90.5234 110.2C90.6654 110.067 90.8345 110 91.0305 110C91.2265 110 91.3941 110.067 91.5333 110.2C91.6754 110.334 91.7464 110.494 91.7464 110.682C91.7464 110.869 91.6754 111.03 91.5333 111.163C91.3941 111.297 91.2265 111.364 91.0305 111.364ZM95.0969 119.153C94.6822 119.153 94.3057 119.075 93.9677 118.919C93.6296 118.76 93.3611 118.531 93.1623 118.233C92.9634 117.932 92.864 117.568 92.864 117.142C92.864 116.767 92.9378 116.463 93.0856 116.23C93.2333 115.994 93.4307 115.81 93.6779 115.676C93.9251 115.543 94.1978 115.443 94.4961 115.378C94.7972 115.31 95.0998 115.256 95.4038 115.216C95.8015 115.165 96.1239 115.126 96.3711 115.101C96.6211 115.072 96.8029 115.026 96.9165 114.96C97.033 114.895 97.0913 114.781 97.0913 114.619V114.585C97.0913 114.165 96.9762 113.838 96.7461 113.605C96.5188 113.372 96.1736 113.256 95.7106 113.256C95.2305 113.256 94.854 113.361 94.5813 113.571C94.3086 113.781 94.1168 114.006 94.006 114.244L93.0515 113.903C93.2219 113.506 93.4492 113.196 93.7333 112.974C94.0202 112.75 94.3327 112.594 94.6708 112.506C95.0117 112.415 95.3469 112.369 95.6765 112.369C95.8867 112.369 96.1282 112.395 96.4009 112.446C96.6765 112.494 96.9421 112.595 97.1978 112.749C97.4563 112.902 97.6708 113.134 97.8413 113.443C98.0117 113.753 98.0969 114.168 98.0969 114.688V119H97.0913V118.114H97.0401C96.9719 118.256 96.8583 118.408 96.6992 118.57C96.5401 118.732 96.3285 118.869 96.0643 118.983C95.8001 119.097 95.4776 119.153 95.0969 119.153ZM95.2503 118.25C95.6481 118.25 95.9833 118.172 96.256 118.016C96.5316 117.859 96.739 117.658 96.8782 117.411C97.0202 117.163 97.0913 116.903 97.0913 116.631V115.71C97.0486 115.761 96.9549 115.808 96.81 115.851C96.668 115.891 96.5032 115.926 96.3157 115.957C96.131 115.986 95.9506 116.011 95.7745 116.034C95.6012 116.054 95.4606 116.071 95.3526 116.085C95.0913 116.119 94.8469 116.175 94.6197 116.251C94.3952 116.325 94.2134 116.437 94.0742 116.588C93.9378 116.736 93.8697 116.937 93.8697 117.193C93.8697 117.543 93.9989 117.807 94.2574 117.986C94.5188 118.162 94.8498 118.25 95.2503 118.25ZM104.373 113.92L103.469 114.176C103.413 114.026 103.329 113.879 103.218 113.737C103.11 113.592 102.962 113.473 102.775 113.379C102.587 113.286 102.347 113.239 102.055 113.239C101.654 113.239 101.32 113.331 101.053 113.516C100.789 113.697 100.657 113.929 100.657 114.21C100.657 114.46 100.748 114.658 100.93 114.803C101.112 114.947 101.396 115.068 101.782 115.165L102.754 115.403C103.339 115.545 103.775 115.763 104.062 116.055C104.349 116.345 104.492 116.719 104.492 117.176C104.492 117.551 104.384 117.886 104.168 118.182C103.955 118.477 103.657 118.71 103.273 118.881C102.89 119.051 102.444 119.136 101.935 119.136C101.268 119.136 100.715 118.991 100.278 118.702C99.8402 118.412 99.5632 117.989 99.4467 117.432L100.401 117.193C100.492 117.545 100.664 117.81 100.917 117.986C101.173 118.162 101.506 118.25 101.918 118.25C102.387 118.25 102.759 118.151 103.035 117.952C103.313 117.75 103.452 117.509 103.452 117.227C103.452 117 103.373 116.81 103.214 116.656C103.055 116.5 102.81 116.384 102.481 116.307L101.39 116.051C100.79 115.909 100.35 115.689 100.069 115.391C99.7905 115.089 99.6513 114.713 99.6513 114.261C99.6513 113.892 99.755 113.565 99.9624 113.281C100.173 112.997 100.458 112.774 100.819 112.612C101.183 112.45 101.594 112.369 102.055 112.369C102.702 112.369 103.211 112.511 103.58 112.795C103.952 113.08 104.217 113.455 104.373 113.92ZM111.461 119.136C110.915 119.136 110.434 118.999 110.016 118.723C109.598 118.445 109.272 118.053 109.036 117.547C108.8 117.038 108.682 116.438 108.682 115.744C108.682 115.057 108.8 114.46 109.036 113.955C109.272 113.449 109.6 113.058 110.02 112.783C110.441 112.507 110.927 112.369 111.478 112.369C111.904 112.369 112.24 112.44 112.488 112.582C112.738 112.722 112.928 112.881 113.059 113.06C113.192 113.236 113.296 113.381 113.37 113.494H113.455V110.273H114.461V119H113.489V117.994H113.37C113.296 118.114 113.191 118.264 113.054 118.446C112.918 118.625 112.723 118.786 112.471 118.928C112.218 119.067 111.881 119.136 111.461 119.136ZM111.597 118.233C112 118.233 112.341 118.128 112.62 117.918C112.898 117.705 113.11 117.411 113.255 117.036C113.4 116.658 113.472 116.222 113.472 115.727C113.472 115.239 113.401 114.811 113.259 114.445C113.117 114.075 112.907 113.788 112.628 113.584C112.35 113.376 112.006 113.273 111.597 113.273C111.171 113.273 110.816 113.382 110.532 113.601C110.25 113.817 110.039 114.111 109.897 114.483C109.758 114.852 109.688 115.267 109.688 115.727C109.688 116.193 109.759 116.616 109.901 116.997C110.046 117.375 110.259 117.676 110.54 117.901C110.824 118.122 111.177 118.233 111.597 118.233ZM118.172 119.153C117.758 119.153 117.381 119.075 117.043 118.919C116.705 118.76 116.437 118.531 116.238 118.233C116.039 117.932 115.939 117.568 115.939 117.142C115.939 116.767 116.013 116.463 116.161 116.23C116.309 115.994 116.506 115.81 116.753 115.676C117 115.543 117.273 115.443 117.571 115.378C117.873 115.31 118.175 115.256 118.479 115.216C118.877 115.165 119.199 115.126 119.446 115.101C119.696 115.072 119.878 115.026 119.992 114.96C120.108 114.895 120.167 114.781 120.167 114.619V114.585C120.167 114.165 120.052 113.838 119.821 113.605C119.594 113.372 119.249 113.256 118.786 113.256C118.306 113.256 117.929 113.361 117.657 113.571C117.384 113.781 117.192 114.006 117.081 114.244L116.127 113.903C116.297 113.506 116.525 113.196 116.809 112.974C117.096 112.75 117.408 112.594 117.746 112.506C118.087 112.415 118.422 112.369 118.752 112.369C118.962 112.369 119.204 112.395 119.476 112.446C119.752 112.494 120.017 112.595 120.273 112.749C120.532 112.902 120.746 113.134 120.917 113.443C121.087 113.753 121.172 114.168 121.172 114.688V119H120.167V118.114H120.115C120.047 118.256 119.934 118.408 119.775 118.57C119.615 118.732 119.404 118.869 119.14 118.983C118.875 119.097 118.553 119.153 118.172 119.153ZM118.326 118.25C118.723 118.25 119.059 118.172 119.331 118.016C119.607 117.859 119.814 117.658 119.954 117.411C120.096 117.163 120.167 116.903 120.167 116.631V115.71C120.124 115.761 120.03 115.808 119.885 115.851C119.743 115.891 119.579 115.926 119.391 115.957C119.206 115.986 119.026 116.011 118.85 116.034C118.677 116.054 118.536 116.071 118.428 116.085C118.167 116.119 117.922 116.175 117.695 116.251C117.471 116.325 117.289 116.437 117.15 116.588C117.013 116.736 116.945 116.937 116.945 117.193C116.945 117.543 117.074 117.807 117.333 117.986C117.594 118.162 117.925 118.25 118.326 118.25ZM128.735 119.136C128.105 119.136 127.56 118.997 127.103 118.719C126.649 118.438 126.298 118.045 126.051 117.543C125.806 117.037 125.684 116.449 125.684 115.778C125.684 115.108 125.806 114.517 126.051 114.006C126.298 113.491 126.641 113.091 127.082 112.804C127.525 112.514 128.042 112.369 128.633 112.369C128.974 112.369 129.31 112.426 129.643 112.54C129.975 112.653 130.278 112.838 130.551 113.094C130.823 113.347 131.041 113.682 131.203 114.099C131.364 114.517 131.445 115.031 131.445 115.642V116.068H126.4V115.199H130.423C130.423 114.83 130.349 114.5 130.201 114.21C130.056 113.92 129.849 113.692 129.579 113.524C129.312 113.357 128.997 113.273 128.633 113.273C128.232 113.273 127.886 113.372 127.593 113.571C127.303 113.767 127.08 114.023 126.924 114.338C126.768 114.653 126.69 114.991 126.69 115.352V115.932C126.69 116.426 126.775 116.845 126.945 117.189C127.119 117.53 127.359 117.79 127.666 117.969C127.972 118.145 128.329 118.233 128.735 118.233C128.999 118.233 129.238 118.196 129.451 118.122C129.667 118.045 129.853 117.932 130.009 117.781C130.166 117.628 130.286 117.437 130.372 117.21L131.343 117.483C131.241 117.812 131.069 118.102 130.828 118.352C130.586 118.599 130.288 118.793 129.933 118.932C129.578 119.068 129.178 119.136 128.735 119.136ZM137.245 121.455V117.994H137.16C137.086 118.114 136.981 118.264 136.845 118.446C136.708 118.625 136.514 118.786 136.261 118.928C136.008 119.067 135.671 119.136 135.251 119.136C134.705 119.136 134.224 118.999 133.806 118.723C133.389 118.445 133.062 118.053 132.826 117.547C132.59 117.038 132.472 116.438 132.472 115.744C132.472 115.057 132.59 114.46 132.826 113.955C133.062 113.449 133.39 113.058 133.811 112.783C134.231 112.507 134.717 112.369 135.268 112.369C135.694 112.369 136.031 112.44 136.278 112.582C136.528 112.722 136.718 112.881 136.849 113.06C136.982 113.236 137.086 113.381 137.16 113.494H137.279V112.455H138.251V121.455H137.245ZM135.387 118.233C135.791 118.233 136.132 118.128 136.41 117.918C136.688 117.705 136.9 117.411 137.045 117.036C137.19 116.658 137.262 116.222 137.262 115.727C137.262 115.239 137.191 114.811 137.049 114.445C136.907 114.075 136.697 113.788 136.418 113.584C136.14 113.376 135.796 113.273 135.387 113.273C134.961 113.273 134.606 113.382 134.322 113.601C134.041 113.817 133.829 114.111 133.687 114.483C133.548 114.852 133.478 115.267 133.478 115.727C133.478 116.193 133.549 116.616 133.691 116.997C133.836 117.375 134.049 117.676 134.33 117.901C134.614 118.122 134.967 118.233 135.387 118.233ZM144.021 116.324V112.455H145.026V119H144.021V117.892H143.953C143.799 118.224 143.561 118.507 143.237 118.74C142.913 118.97 142.504 119.085 142.009 119.085C141.6 119.085 141.237 118.996 140.918 118.817C140.6 118.635 140.35 118.362 140.168 117.999C139.987 117.632 139.896 117.17 139.896 116.614V112.455H140.901V116.545C140.901 117.023 141.035 117.403 141.302 117.688C141.572 117.972 141.916 118.114 142.333 118.114C142.583 118.114 142.838 118.05 143.096 117.922C143.357 117.794 143.576 117.598 143.752 117.334C143.931 117.07 144.021 116.733 144.021 116.324ZM146.672 119V112.455H147.678V119H146.672ZM147.184 111.364C146.988 111.364 146.819 111.297 146.677 111.163C146.537 111.03 146.468 110.869 146.468 110.682C146.468 110.494 146.537 110.334 146.677 110.2C146.819 110.067 146.988 110 147.184 110C147.38 110 147.547 110.067 147.687 110.2C147.829 110.334 147.9 110.494 147.9 110.682C147.9 110.869 147.829 111.03 147.687 111.163C147.547 111.297 147.38 111.364 147.184 111.364ZM149.324 121.455V112.455H150.296V113.494H150.415C150.489 113.381 150.591 113.236 150.722 113.06C150.855 112.881 151.046 112.722 151.293 112.582C151.543 112.44 151.881 112.369 152.307 112.369C152.858 112.369 153.344 112.507 153.764 112.783C154.185 113.058 154.513 113.449 154.749 113.955C154.985 114.46 155.102 115.057 155.102 115.744C155.102 116.438 154.985 117.038 154.749 117.547C154.513 118.053 154.186 118.445 153.769 118.723C153.351 118.999 152.87 119.136 152.324 119.136C151.904 119.136 151.567 119.067 151.314 118.928C151.061 118.786 150.867 118.625 150.73 118.446C150.594 118.264 150.489 118.114 150.415 117.994H150.33V121.455H149.324ZM150.313 115.727C150.313 116.222 150.385 116.658 150.53 117.036C150.675 117.411 150.887 117.705 151.165 117.918C151.443 118.128 151.784 118.233 152.188 118.233C152.608 118.233 152.959 118.122 153.24 117.901C153.524 117.676 153.737 117.375 153.879 116.997C154.024 116.616 154.097 116.193 154.097 115.727C154.097 115.267 154.026 114.852 153.884 114.483C153.745 114.111 153.533 113.817 153.249 113.601C152.968 113.382 152.614 113.273 152.188 113.273C151.779 113.273 151.435 113.376 151.156 113.584C150.878 113.788 150.668 114.075 150.526 114.445C150.384 114.811 150.313 115.239 150.313 115.727ZM159.185 119.136C158.554 119.136 158.01 118.997 157.553 118.719C157.098 118.438 156.747 118.045 156.5 117.543C156.256 117.037 156.134 116.449 156.134 115.778C156.134 115.108 156.256 114.517 156.5 114.006C156.747 113.491 157.091 113.091 157.531 112.804C157.975 112.514 158.492 112.369 159.083 112.369C159.424 112.369 159.76 112.426 160.093 112.54C160.425 112.653 160.728 112.838 161 113.094C161.273 113.347 161.49 113.682 161.652 114.099C161.814 114.517 161.895 115.031 161.895 115.642V116.068H156.85V115.199H160.872C160.872 114.83 160.799 114.5 160.651 114.21C160.506 113.92 160.299 113.692 160.029 113.524C159.762 113.357 159.446 113.273 159.083 113.273C158.682 113.273 158.335 113.372 158.043 113.571C157.753 113.767 157.53 114.023 157.374 114.338C157.218 114.653 157.139 114.991 157.139 115.352V115.932C157.139 116.426 157.225 116.845 157.395 117.189C157.568 117.53 157.808 117.79 158.115 117.969C158.422 118.145 158.779 118.233 159.185 118.233C159.449 118.233 159.688 118.196 159.901 118.122C160.117 118.045 160.303 117.932 160.459 117.781C160.615 117.628 160.736 117.437 160.821 117.21L161.793 117.483C161.691 117.812 161.519 118.102 161.277 118.352C161.036 118.599 160.737 118.793 160.382 118.932C160.027 119.068 159.628 119.136 159.185 119.136Z" fill="white"/>
<path d="M99.5 216.583C109.349 216.583 117.333 208.599 117.333 198.75C117.333 188.901 109.349 180.917 99.5 180.917C89.6509 180.917 81.6667 188.901 81.6667 198.75C81.6667 208.599 89.6509 216.583 99.5 216.583ZM70.5209 229.958C76.6765 229.958 81.6667 224.968 81.6667 218.812C81.6667 212.657 76.6765 207.667 70.5209 207.667C64.3652 207.667 59.375 212.657 59.375 218.812C59.375 224.968 64.3652 229.958 70.5209 229.958ZM139.625 218.812C139.625 224.968 134.635 229.958 128.479 229.958C122.324 229.958 117.333 224.968 117.333 218.812C117.333 212.657 122.324 207.667 128.479 207.667C134.635 207.667 139.625 212.657 139.625 218.812ZM99.5 221.042C111.811 221.042 121.792 231.022 121.792 243.333V270.083H77.2084V243.333C77.2084 231.022 87.1887 221.042 99.5 221.042ZM68.2917 243.333C68.2917 240.244 68.7405 237.259 69.5765 234.442L68.8206 234.508C61.0024 235.355 54.9167 241.977 54.9167 250.02V270.083H68.2917V243.333ZM144.083 270.083V250.02C144.083 241.718 137.6 234.931 129.423 234.442C130.259 237.259 130.708 240.244 130.708 243.333V270.083H144.083Z" fill="#CD5400"/>
</svg>
